<?xml version="1.0" encoding="utf-8"?>
<svg width="151.18111" height="151.18111" viewBox="0 0 40 40" version="1.1" id="svg851" xmlns="http://www.w3.org/2000/svg">
  <g id="layer1">
    <g id="g3385" transform="matrix(0.07707213,0,0,0.09285548,0.39240145,-3.583415)">
      <path d="m 436.67,184.11 a 27.17,27.17 0 0 1 -38.3,0 l -22.48,-22.49 a 27.15,27.15 0 0 1 0,-38.29 l 50.89,-50.89 a 0.85,0.85 0 0 0 -0.26,-1.38 C 393.68,57 351.09,64.15 324.05,91 c -25.88,25.69 -27.35,64.27 -17.87,98 a 27,27 0 0 1 -7.67,27.14 l -173,160.76 a 40.76,40.76 0 1 0 57.57,57.54 l 162.15,-173.3 a 27,27 0 0 1 26.77,-7.7 c 33.46,8.94 71.49,7.26 97.07,-17.94 27.49,-27.08 33.42,-74.94 20.1,-102.33 a 0.85,0.85 0 0 0 -1.36,-0.22 z" fill="none" stroke="currentColor" stroke-linecap="round" stroke-miterlimit="10" stroke-width="32" id="path3368"/>
      <path d="m 224,284 c -17.48,-17 -25.49,-24.91 -31,-30.29 a 18.24,18.24 0 0 1 -3.33,-21.35 20.76,20.76 0 0 1 3.5,-4.62 l 15.68,-15.29 a 18.66,18.66 0 0 1 5.63,-3.87 18.11,18.11 0 0 1 20,3.62 c 5.45,5.29 15.43,15 33.41,32.52 m 49.18,46.58 c 40.95,38.1 90.62,83.27 110,99.41 a 13.46,13.46 0 0 1 0.94,19.92 L 394.63,444 a 14,14 0 0 1 -20.29,-0.76 c -16.53,-19.18 -61.09,-67.11 -99.27,-107" fill="none" stroke="currentColor" stroke-linecap="round" stroke-linejoin="round" stroke-width="32" id="path3370"/>
      <path d="m 17.34,193.5 29.41,-28.74 a 4.71,4.71 0 0 1 3.41,-1.35 4.85,4.85 0 0 1 3.41,1.35 v 0 a 9.86,9.86 0 0 0 8.19,2.77 c 3.83,-0.42 7.92,-1.6 10.57,-4.12 6,-5.8 -0.94,-17.23 4.34,-24.54 a 207,207 0 0 1 19.78,-22.6 c 6,-5.88 29.84,-28.32 69.9,-44.45 A 107.31,107.31 0 0 1 206.67,64 c 22.59,0 40,10 46.26,15.67 A 89.54,89.54 0 0 1 263.21,91.31 78.92,78.92 0 0 0 254,88.54 68.82,68.82 0 0 0 234,87.28 c -13.33,1.09 -29.41,7.26 -38,14 -13.9,11 -19.87,25.72 -20.81,44.71 -0.68,14.12 2.72,22.1 36.1,55.49 a 6.6,6.6 0 0 1 -0.34,9.16 l -18.22,18 a 6.88,6.88 0 0 1 -9.54,0.09 c -21.94,-21.94 -36.65,-33.09 -45,-38.16 -8.35,-5.07 -15.07,-6.5 -18.3,-6.85 a 30.85,30.85 0 0 0 -18.27,3.87 11.39,11.39 0 0 0 -2.64,2 14.14,14.14 0 0 0 0.42,20.08 l 1.71,1.6 a 4.63,4.63 0 0 1 0,6.64 L 71.73,246.6 a 4.71,4.71 0 0 1 -3.41,1.4 4.86,4.86 0 0 1 -3.41,-1.35 L 17.34,200.22 a 4.88,4.88 0 0 1 0,-6.72 z" fill="none" stroke="currentColor" stroke-linecap="round" stroke-linejoin="round" stroke-width="32" id="path3372"/>
    </g>
  </g>
</svg>