<?xml version="1.0" encoding="utf-8"?>
<svg version="1.1" id="svg916" width="420" height="420" viewBox="0 0 420 420" xmlns="http://www.w3.org/2000/svg">
  <style id="style11172">#g11170, #path11142, #path11144, #path11146, #path11148, #path873-1 {  }
</style>
  <g id="layer7" >
    <path style="fill:#535e64;stroke-width:0.761582" d="m 367.57353,258.38834 c 0,0 -1.05156,6.24147 -3.02221,12.31486 -3.85462,11.87964 -4.89724,13.35568 -9.43396,13.35568 -3.06196,0 -4.19152,-1.23224 -15.34144,-16.73604 l -8.47983,-11.79109 h -17.98194 c -16.87458,0 -18.07588,-0.0913 -19.50749,-1.48234 -2.04623,-1.98825 -2.67263,-4.76429 -1.53934,-6.82188 0.51125,-0.92821 5.30913,-7.43826 10.66196,-14.4668 l 9.73242,-12.77916 -5.61993,-15.88744 c -5.83827,-16.50466 -6.137,-18.43325 -3.24864,-20.9731 2.40103,-2.11133 5.48357,-1.58657 21.76314,3.70486 l 15.93082,5.17807 12.45182,-8.96236 c 16.61512,-11.95893 16.55382,-11.92469 19.53684,-10.91428 4.39047,1.48717 4.47399,1.87303 4.50081,20.793 l 0.0246,17.33963 13.90968,9.55277 c 7.65032,5.25402 14.25611,10.18174 14.67953,10.95047 0.42341,0.76874 0.76984,2.1893 0.76984,3.15681 0,3.73611 -1.91547,4.92899 -13.74989,8.56288 l -23.03762,5.92957 z m -6.10184,3.42278 5.39557,-16.99276 17.54234,-5.28245 c 9.64828,-2.90534 17.53686,-5.47769 17.53017,-5.71633 -0.007,-0.23865 -6.6994,-5.01161 -14.87268,-10.60658 l -14.86051,-10.17268 0.28785,-17.79143 c 0.18081,-11.17592 0.009,-17.79142 -0.46097,-17.79142 -0.41185,0 -7.25282,4.68675 -15.20218,10.41501 l -14.45337,10.41501 -16.97219,-5.64446 c -9.3347,-3.10445 -17.18559,-5.4371 -17.44641,-5.18367 -0.26083,0.25343 2.00935,7.65015 5.04484,16.43713 3.03549,8.78699 5.51619,16.39682 5.51267,16.91074 -0.004,0.51392 -4.69999,7.03111 -10.43659,14.48264 -5.73661,7.45154 -10.43019,13.87194 -10.43019,14.26756 0,0.43844 7.17401,0.71932 18.37278,0.71932 h 18.37277 l 10.36317,14.26356 c 5.69975,7.84497 10.57787,14.26357 10.84027,14.26357 0.2624,0 2.90509,-7.64674 5.87266,-16.99276 z m -12.57162,-16.78937 c -0.65692,-4.71551 -0.59791,-5.255 0.57485,-5.255 1.00913,0 1.43135,0.96766 1.85298,4.24662 0.30033,2.33564 0.72526,4.70039 0.94429,5.25499 0.25012,0.63334 -0.16678,1.00839 -1.1209,1.00839 -1.29604,0 -1.62664,-0.77174 -2.25122,-5.255 z m -25.27187,-7.91053 c -0.30949,-0.78365 1.09976,-1.85323 4.87715,-3.70159 4.3094,-2.10869 5.39458,-2.3914 5.74766,-1.49736 0.30949,0.78366 -1.09977,1.85324 -4.87715,3.7016 -4.30941,2.10868 -5.39457,2.39139 -5.74766,1.49735 z m 42.3784,-7.38309 c -3.55815,-0.64725 -4.59746,-1.1258 -4.41146,-2.03125 0.36334,-1.76876 10.47949,-0.12518 10.85381,1.76343 0.28805,1.45333 0.11438,1.46055 -6.44235,0.26782 z m -34.25919,-17.26142 c -3.28729,-3.23432 -3.84819,-4.14089 -2.9901,-4.83286 0.83327,-0.67196 1.91034,-0.0114 5.10255,3.12937 3.28729,3.23433 3.84819,4.1409 2.9901,4.83287 -0.83327,0.67196 -1.91034,0.0114 -5.10255,-3.12938 z m 21.75692,0.5387 c -1.19822,-0.47272 3.52896,-10.02365 4.96115,-10.02365 0.5462,0 0.99309,0.34745 0.99309,0.77212 0,0.7814 -4.50387,9.78802 -4.83992,9.67861 -0.10011,-0.0326 -0.60156,-0.22478 -1.11432,-0.42708 z" id="path930-9"/>
    <path style="fill:#f9f6dc;stroke-width:0.761582" d="M 344.74778,264.54059 334.3956,250.27675 h -16.457 c -9.05135,0 -16.457,-0.16701 -16.457,-0.37113 0,-0.20411 4.17208,-5.79393 9.27128,-12.4218 5.09921,-6.62788 9.27128,-12.41405 9.27128,-12.85816 0,-0.4441 -2.43371,-7.96457 -5.40824,-16.71215 -2.97454,-8.74757 -5.40825,-16.1311 -5.40825,-16.40783 0,-0.27674 7.55415,2.02326 16.78701,5.1111 9.23286,3.08785 17.04096,5.61426 17.35134,5.61426 0.31037,0 6.83698,-4.55924 14.50355,-10.13166 l 13.93924,-10.13165 v 15.64668 c 0,12.39561 0.24049,16.11509 1.15745,17.90107 0.75503,1.47062 5.46367,5.20913 13.54357,10.75316 6.81237,4.67433 12.11505,8.74036 11.78372,9.03564 -0.33133,0.29528 -7.53868,2.61395 -16.01634,5.15259 -8.47764,2.53866 -15.53406,4.73248 -15.68093,4.87518 -0.14685,0.1427 -2.5524,7.47888 -5.34564,16.30261 -2.79324,8.82373 -5.31534,16.29664 -5.60466,16.60646 -0.28932,0.30982 -5.18451,-5.85542 -10.8782,-13.70053 z m 7.35365,-17.77288 c -0.69639,-6.31854 -0.97977,-7.00096 -2.90725,-7.00096 -1.45413,0 -1.531,0.31354 -1.05059,4.28524 0.79775,6.59525 1.23082,7.72619 2.95861,7.72619 1.45373,0 1.51667,-0.31561 0.99923,-5.01047 z m -22.01135,-10.01463 c 4.48096,-2.19788 5.81652,-4.09207 3.49545,-4.95752 -1.39086,-0.51859 -10.47094,4.0975 -10.47094,5.32316 0,1.05204 0.75559,1.89731 1.69601,1.89731 0.36623,0 2.742,-1.01832 5.27948,-2.26295 z m 43.24395,-6.71285 c 0,-1.10715 -0.96743,-1.54376 -4.89208,-2.20785 -7.02761,-1.18912 -7.61995,-1.11996 -7.33021,0.85589 0.21536,1.46871 0.93735,1.78523 5.65513,2.47917 6.08563,0.89514 6.56716,0.81248 6.56716,-1.12721 z m -35.79578,-13.98057 c 0.31188,-0.7897 -0.90756,-2.5393 -3.65148,-5.239 -3.89943,-3.8366 -4.19568,-3.98656 -5.54005,-2.8044 -1.36211,1.19777 -1.2541,1.41249 2.63508,5.23901 4.21854,4.15056 5.76379,4.81151 6.55645,2.80439 z m 20.23548,-6.35308 c 2.56545,-4.53432 2.73758,-6.72482 0.52843,-6.72482 -1.5808,0 -6.92759,10.25371 -5.61592,10.76982 2.02975,0.79866 2.60645,0.34013 5.08749,-4.045 z" id="path940-6"/>
  </g>
   
    <g id="layer1">
      <path id="path930-6-7-1" style="fill:#535e64;stroke-width:0.758536" d="m 121.02886,84.87163 c -10.46958,-0.21438 -20.65721,4.07 -30.31445,15.20313 -4.66226,5.37478 -12.70323,22.49517 -14.44141,33.20703 2.92317,20.1174 1.23829,22.39042 18.06641,49.45117 l 49.47266,64.57812 c 0.77785,1.11722 1.98737,0.47929 4.33008,-1.14649 4.94184,-3.76448 9.74456,-8.41305 12.93359,-11.49023 0.0375,-0.0398 1.57351,1.44142 4.12305,3.98437 0.067,0.0669 -3.79524,2.16701 -7.91016,4.0879 -3.25356,1.51881 -6.17338,2.73264 -7.73633,3.41992 -0.57349,0.25218 -1.51564,0.51434 -1.54297,0.52344 -0.12858,0.0428 -1.0786,0.33728 -0.64844,0.41601 0.009,0.002 0.10475,0.3856 1.35157,-0.0371 2.14702,-0.72798 5.56163,-1.96199 8.70508,-3.3457 4.5316,-1.99476 8.72428,-4.12533 8.73242,-4.11719 10.16166,10.15838 34.6342,34.9238 61.17969,61.08984 51.18841,50.45668 93.59201,85.33789 95.19335,85.33789 4.04033,0 8.11064,-2.35453 9.03516,-7.00585 0.49754,-2.50319 -28.58938,-28.58239 -91.51953,-90.64649 -24.38307,-24.0475 -47.48169,-46.21575 -59.14063,-57.46874 0.0484,-0.0133 2.31716,-1.31069 2.3418,-1.28711 17.07075,16.33365 54.2154,53.04525 80.57031,79.02343 51.18843,50.45668 91.44944,83.42383 93.05079,83.42383 4.04032,0 8.05594,-2.33306 8.98046,-6.98438 0.49754,-2.50319 -26.39014,-26.68981 -89.32031,-88.7539 -26.26206,-25.90064 -61.19488,-61.50941 -76.71289,-77.53516 0.55261,-0.30538 1.85549,-1.33187 1.91602,-1.27343 10.58856,10.22308 32.22696,31.40695 56.70507,55.53515 51.18841,50.45669 117.95139,115.64258 119.55274,115.64258 4.04032,0 9.06768,-4.64556 9.99219,-9.29688 0.49755,-2.50319 -53.90383,-56.59605 -116.83399,-118.66015 -24.17161,-23.83896 -44.54332,-44.07507 -55.08398,-54.67578 0.78387,-0.3782 1.89606,-1.81153 2.02539,-1.6875 17.19553,16.49154 53.43174,52.357 79.35547,77.91015 51.18841,50.45668 63.57248,62.29297 65.17383,62.29297 4.04032,0 9.3997,-5.0225 10.32421,-9.67383 0.49755,-2.50318 0.14305,-2.86949 -62.78711,-64.93359 -27.97705,-27.59203 -66.23101,-66.37329 -80.24414,-80.79492 1.1202,-1.22887 3.04361,-5.32651 4.30274,-7.5332 2.06526,-3.61951 4.68516,-10.37004 5,-10.57422 -2.34231,-2.96755 -19.36063,-21.75436 -42.33789,-40.17578 -24.66566,-19.77513 -51.04348,-45.52155 -75.83985,-46.0293 z m 3.9668,6.73242 c 3.7821,0.0112 7.74348,0.8571 11.93555,2.73242 19.70857,8.81663 50.28951,27.7739 74.39844,54.44532 5.6817,6.28561 16.91361,15.07883 20.91796,23.08007 -15.11084,10.61426 -23.24259,20.04541 -36.51367,23.79688 -5.67475,5.02721 -16.38284,18.37631 -28.26367,29.51953 -0.51,0.42688 -1.02178,0.89821 -1.5293,1.41797 -7.14537,6.52416 -14.64793,12.11182 -21.69922,14.49218 -17.77018,-29.98082 -53.84663,-58.37853 -58.95312,-94.23437 -1.74198,-12.2315 -0.97765,-32.18143 13.37109,-42.23633 8.17704,-7.61996 16.67057,-13.04233 26.33594,-13.01367 z m 109.12695,84.36328 c 0.52407,-0.34943 -4.81338,10.71465 -5.20898,12.19727 -2.8051,-2.89336 -4.82274,-4.99381 -4.78906,-5.02344 -0.0165,-0.0148 -0.0358,-0.0249 -0.0527,-0.0391 2.61403,-2.01819 5.83687,-4.325 10.05078,-7.13477 z m -9.90234,10.49024 82.63086,84.03124 c 50.88105,50.16453 63.31055,62.79845 63.31055,64.34571 0,1.19847 -0.93693,2.79189 -2.48243,4.22265 -1.36549,1.26412 -3.15186,2.53147 -3.96875,2.81641 -1.22225,0.42632 -12.46409,-10.91174 -65.2207,-62.30859 l -85.55664,-83.35156 c 1.34754,-4.11518 5.38852,-9.56663 11.28711,-9.75586 z m -14.55859,10.11328 c 1.40764,1.21529 4.00025,3.63207 7.625,7.09766 0.18565,0.1775 -1.76993,1.69945 -1.6836,1.94726 -4.40152,-4.42939 -7.46101,-7.5419 -7.40429,-7.5918 0.53398,-0.51593 0.97989,-0.97203 1.46289,-1.45312 z m -5.12891,2.26758 63.31055,62.41796 c 50.88105,50.16454 118.14843,117.60118 118.14843,119.14844 0,1.19847 -0.4545,2.03604 -2,3.4668 -1.36549,1.26412 -3.41357,2.50802 -4.23046,2.79296 -1.22225,0.42632 -67.83044,-64.63185 -120.2793,-116.33398 l -63.73438,-62.82617 1.09961,-3.25195 c 0.95587,-2.82738 0.79718,-4.15758 3.76563,-4.69922 z m -9.62109,12.27148 c 0.0468,-0.0495 2.21036,1.99024 5.78711,5.4336 0.20024,0.19278 -1.66687,1.125 -1.70118,1.41406 -2.98635,-3.08824 -4.86441,-5.05454 -5.9414,-6.20703 0.5663,-0.16177 1.16506,-0.35388 1.85547,-0.64063 z m -4.79297,1.26758 83.10547,84.46679 c 50.88104,50.16453 89.99609,85.82188 89.99609,87.36914 0,1.19847 -0.11661,2.97355 -1.66211,4.4043 -1.3655,1.26412 -3.2417,1.22874 -4.05859,1.51367 -1.22226,0.42632 -40.09875,-32.59684 -92.63672,-84.21094 l -86.28516,-84.76952 c 0.32962,-1.00661 0.78108,-2.0933 1.35742,-3.16211 1.95638,-1.49286 3.87573,-2.84144 5.71289,-3.94922 1.83351,-1.10558 3.12847,-1.41876 4.47071,-1.66211 z m -15.09766,9.59961 c 1.27917,1.08994 3.72872,3.36433 7.16602,6.64258 0.14712,0.14032 -2.04361,1.27113 -2.10352,1.5039 -3.59117,-3.46813 -6.02987,-5.83775 -6.81445,-6.65234 0.58534,-0.51154 1.16771,-0.99721 1.75195,-1.49414 z m -3.0332,3.08203 64.7539,63.83398 c 50.88104,50.16453 91.52149,89.17735 91.52149,90.72461 0,1.19847 -0.56974,1.58486 -2.11524,3.01562 -1.36549,1.26412 -3.07178,0.20336 -3.88867,0.48829 -1.22225,0.42632 -41.58022,-33.30449 -93.8789,-85.1543 l -65.5,-64.93945 c 0.53562,-0.50774 1.05684,-1.0035 1.60156,-1.51758 2.57858,-1.63622 4.46504,-2.97045 7.50586,-6.45117 z"/>
    </g>
   
  <g id="layer5">
    <path style="fill:#ff0000;fill-rule:evenodd;stroke:#9b0000;stroke-width:0;stroke-linecap:round;stroke-miterlimit:4;stroke-dasharray:none" d="m 147.19036,246.94962 c 0.43817,-0.30017 1.98366,-1.43698 2.87786,-2.14777 2.04991,-1.62943 4.39093,-3.62377 8.58411,-7.64872 l 2.47749,-2.3781 0.55253,0.4832 1.55619,1.50202 c 1.2321,1.18922 2.02115,2.00205 2.02115,2.00205 0.10649,0.10402 -2.44448,1.44085 -4.73187,2.58002 -0.91279,0.39374 -1.98936,0.98519 -3.09195,1.51202 -3.52531,1.68443 -7.60486,3.75196 -9.96748,4.15068 -0.0851,0.0144 -0.19746,-0.0651 -0.27803,-0.0554 z" id="path11138"/>
    <path style="fill:#ff0000;fill-rule:evenodd;stroke:none;stroke-width:3.40157;stroke-linecap:round;stroke-miterlimit:4;stroke-dasharray:none;stroke-opacity:1" d="m 139.09777,234.53134 c -2.168,-3.3 -10.158,-13.342 -18.33,-23.489 -17.091,-21.222 -24.49,-31.154 -29.888,-42.369 -5.593,-11.623 -7.483,-18.251 -7.493,-31.169 -0.011,-12.463 2.193,-16.363 5.63,-23.482 3.409,-7.062 15.208,-16.000999 21.985,-19.299999 4.927,-2.399 7.959,-3.549 14.055,-3.549 6.855,0 6.698,0.597 17.935,6.241 18.073,9.075999 37.58699,22.482999 52.993,36.306999 5.991,5.375 22.031,20.5 30.68,30.002 3.716,4.083 5.473,7.787 5.462,8.148 -0.018,0.556 -1.713,1.53 -4.126,3.243 -2.413,1.714 -6.7,5.251 -10.635,8.281 -3.936,3.031 -11.586,8.281 -15.059,9.966 -5.693,2.762 -8.34,3.701 -23.43401,20.54 -14.86299,16.579 -24.38299,22.9 -31.11799,25.611 l -4.26,1.714 z" id="path873-1"/>
    <path style="fill:#ff0000;fill-rule:evenodd;stroke:#ff0000;stroke-width:0.149701;stroke-linecap:round;stroke-miterlimit:4;stroke-dasharray:none;stroke-opacity:1" d="m 176.70317,226.88572 -3.38394,-3.30325 0.97318,-0.81745 c 0.72398,-0.60813 0.55377,-0.79892 0.96852,-0.45173 0.61542,0.51515 2.76646,2.45257 4.94685,4.55105 l 1.97848,1.90415 -1.08071,0.63616 c -0.55204,0.32496 -0.9958,0.74577 -1.01703,0.74577 -0.0212,0 -2.5347,-2.43434 -3.38535,-3.2647 z" id="path11142"/>
    <path style="fill:#ff0000;fill-rule:evenodd;stroke:#ff0000;stroke-width:0.149701;stroke-linecap:round;stroke-miterlimit:4;stroke-dasharray:none;stroke-opacity:1" d="m 196.07069,214.9514 c -1.49769,-1.56309 -2.88482,-3.00913 -2.88482,-3.05746 0,-0.0483 0.58635,-0.13964 1.02717,-0.27171 l 0.74877,-0.40109 2.92569,2.75108 c 1.5235,1.43258 2.83461,2.66224 2.83326,2.72933 -0.003,0.1512 -1.46695,1.23482 -1.67459,1.22187 -0.0832,-0.005 -1.47778,-1.40893 -2.97548,-2.97202 z" id="path11144"/>
    <path style="fill:#ff0000;fill-rule:evenodd;stroke:#ff0000;stroke-width:0.149701;stroke-linecap:round;stroke-miterlimit:4;stroke-dasharray:none;stroke-opacity:1" d="m 211.82962,201.88756 -3.50696,-3.73512 0.64477,-0.6218 c 0.32026,-0.30885 0.70659,-0.80159 0.8,-0.80159 0.0934,0 1.38401,1.24724 2.8066,2.58155 1.42259,1.33431 3.05065,2.94759 3.65175,3.52422 l 1.12193,0.9705 -0.85493,0.84681 c -0.44023,0.43605 -0.84173,0.95604 -0.91139,0.95604 -0.0697,0 -1.87065,-1.64657 -3.75177,-3.72061 z" id="path11146"/>
    <path style="fill:#ff0000;fill-rule:evenodd;stroke:#ff0000;stroke-width:0.149701;stroke-linecap:round;stroke-miterlimit:4;stroke-dasharray:none;stroke-opacity:1" d="m 226.44446,185.6082 -2.26885,-2.35502 2.08714,-1.60995 c 0.65947,-0.50869 1.34081,-0.99078 2.02868,-1.49228 2.97711,-2.1705 5.8463,-4.18325 5.89712,-4.03079 0.0747,0.22417 -5.0608,12.10502 -5.23579,12.10718 -0.0694,8.6e-4 -1.29067,-1.35526 -2.5083,-2.61914 z" id="path11148"/>
  </g>
  <g id="layer6">
    <path style="fill:#aec7ea;stroke-width:0.758536" d="m 170.355,227.46559 c -1.10347,-0.0575 -1.30413,1.13565 -1.79688,2.5293 -0.45527,1.28767 -0.82812,2.88272 -0.82812,3.54492 0,0.6622 28.27353,29.0826 62.83008,63.15626 34.55655,34.07364 90.80259,83.79102 91.34961,83.79102 0.547,0 1.37832,-0.70832 2.60547,-1.33399 5.30973,-2.70725 -18.12196,-20.49469 -87.59571,-88.99023 -51.81987,-51.09024 -63.25404,-62.52469 -66.56445,-62.69728 z" id="path1174"/>
    <path style="fill:#aec7ea;stroke-width:0.758536" d="m 185.48781,215.0945 c -1.00861,-0.0906 -1.35986,0.7825 -1.79101,2.00195 -0.45527,1.28767 -0.82813,2.88469 -0.82813,3.54688 0,0.66221 28.27354,29.0826 62.83008,63.15625 22.93027,22.60985 61.94151,60.22367 86.11523,82.53126 12.25673,11.31056 25.85503,22.47851 26.03907,22.47851 0.547,0 0.88809,-1.2044 2.11523,-1.83007 0.86399,-0.44055 2.27971,-0.50669 0.7793,-2.64063 C 353.02746,373.35883 313.22673,338.62182 255.05812,281.27223 201.0791,228.05324 189.09,215.4181 185.48781,215.0945 Z" id="path1172"/>
    <path style="fill:#aec7ea;stroke-width:0.758536" d="m 200.81008,200.04762 c -1.10347,-0.0575 -1.30413,1.13565 -1.79688,2.5293 -0.45527,1.28767 -0.82617,2.88272 -0.82617,3.54492 0,0.6622 28.27353,29.08261 62.83008,63.15625 34.55655,34.07366 117.87291,114.49611 118.41992,114.49611 0.54701,0 1.46427,-1.42707 2.69141,-2.05274 5.30973,-2.70725 -45.27822,-50.48102 -114.75196,-118.97657 -51.81987,-51.09022 -63.256,-62.52468 -66.5664,-62.69727 z" id="path1170"/>
    <path style="fill:#aec7ea;stroke-width:0.758536" d="m 219.8882,188.79567 c -1.30608,0.11998 -2.68658,1.35887 -3.16601,2.71484 -0.45527,1.28768 -1.03907,1.6464 -1.03907,2.3086 0,0.6622 28.27353,29.08261 62.83008,63.15625 34.55655,34.07366 84.76743,82.92774 85.31446,82.92774 0.547,0 0.72403,0.0339 1.95117,-0.59179 5.30973,-2.70726 -11.43249,-20.37361 -80.90625,-88.86915 -49.88589,-49.18348 -60.67879,-60.97232 -64.43164,-61.62696 -0.18062,-0.0315 -0.36615,-0.0367 -0.55274,-0.0195 z" id="path938-3-9"/>
  </g>
  <g id="layer8">
       <path style="fill:#ff0000;fill-opacity:1;stroke-width:0.469404" d="m 101.00945,329.00599 c 1.65595,-3.44133 5.36616,-7.16993 8.85868,-8.90259 l 2.77664,-1.37751 -1.39657,-0.46516 c -4.04611,-1.34765 -8.90274,-6.10835 -10.66591,-10.45523 l -0.74732,-1.84243 -1.41357,2.87616 c -1.68734,3.43325 -5.91695,7.6159 -9.00887,8.90888 -1.17435,0.49109 -2.12544,0.99938 -2.11354,1.12954 0.0119,0.13017 1.22018,0.81299 2.68508,1.5174 3.39909,1.63447 6.75892,5.05058 8.36647,8.50661 0.6928,1.48944 1.28742,2.71876 1.32139,2.73183 0.034,0.0131 0.63585,-1.16931 1.33752,-2.6275 z" id="path1143-7"/>
      <path style="fill:#790000;fill-opacity:1;stroke-width:0.706621" d="M 98.95764,343.38176 C 97.60132,332.15083 87.0498,321.70357 75.92602,320.57767 c -3.00982,-0.30463 -3.84802,-0.6517 -3.84802,-1.5932 0,-0.94151 0.8382,-1.28857 3.84802,-1.59321 11.12378,-1.12589 21.6753,-11.57315 23.03162,-22.80407 0.33422,-2.76748 0.71611,-3.59319 1.66185,-3.59319 0.96657,0 1.31585,0.83623 1.64152,3.93044 1.14453,10.87526 11.43874,21.14245 22.48439,22.42536 2.85755,0.33191 3.70289,0.70506 3.70289,1.63467 0,0.9296 -0.84534,1.30276 -3.70289,1.63466 -11.04565,1.28292 -21.33986,11.55012 -22.48439,22.42538 -0.32567,3.0942 -0.67495,3.93043 -1.64152,3.93043 -0.94574,0 -1.32763,-0.8257 -1.66185,-3.59318 z m 3.45029,-9.4234 c 2.53823,-5.08771 8.22521,-10.60013 13.57853,-13.16173 l 4.25603,-2.03654 -2.14065,-0.68769 c -6.20187,-1.99239 -13.6461,-9.03068 -16.34867,-15.45717 l -1.14545,-2.7239 -2.16676,4.25219 c -2.58633,5.07576 -9.06948,11.25945 -13.80873,13.17101 -1.80007,0.72603 -3.25784,1.4775 -3.23965,1.66994 0.0185,0.19243 1.87028,1.20194 4.11568,2.24334 5.21011,2.41643 10.36007,7.46687 12.82409,12.57631 1.06191,2.20201 1.97339,4.01946 2.02541,4.03879 0.0521,0.0193 0.97463,-1.72873 2.05017,-3.88455 z" id="path930-9-3-2"/>
   </g>
  <g id="layer9">
       <path style="fill:#0000ff;fill-opacity:1;stroke:none;stroke-width:0.475384;stroke-miterlimit:4;stroke-dasharray:none;stroke-opacity:1" d="m 52.1973,58.43162 c 1.6895,-3.46318 5.4749,-7.21545 9.0382,-8.95912 l 2.8329,-1.38625 -1.4248,-0.46811 C 58.5155,46.26193 53.5604,41.47101 51.7615,37.09653 l -0.7625,-1.85414 -1.4422,2.89444 c -1.7215,3.45504 -6.0368,7.66424 -9.1914,8.96543 -1.1982,0.49421 -2.1685,1.00573 -2.1564,1.13672 0.012,0.13099 1.2449,0.81815 2.7395,1.52703 3.468,1.64485 6.8959,5.08265 8.536,8.56062 0.7069,1.49889 1.3135,2.73602 1.3482,2.74918 0.035,0.0131 0.6487,-1.17674 1.3646,-2.64419 z" id="path1143-7-0"/>
      <path style="fill:#00009b;fill-opacity:1" d="M 51.333,84.25 C 49.432,68.2 34.645,53.27 19.055,51.662 14.837,51.226 13.663,50.73 13.663,49.385 c 0,-1.346 1.174,-1.842 5.392,-2.277 15.59,-1.609 30.377,-16.539 32.278,-32.588 0.468,-3.955 1.004,-5.135 2.329,-5.135 1.355,0 1.844,1.195 2.301,5.617 1.604,15.541 16.03,30.213 31.51,32.047 4.005,0.474 5.19,1.007 5.19,2.336 0,1.328 -1.185,1.861 -5.19,2.336 -15.48,1.833 -29.906,16.506 -31.51,32.047 -0.457,4.422 -0.946,5.617 -2.301,5.617 -1.325,0 -1.861,-1.18 -2.329,-5.135 z m 4.835,-13.467 c 3.558,-7.27 11.528,-15.148 19.03,-18.809 l 5.965,-2.91 -3,-0.983 C 69.471,45.234 59.038,35.176 55.251,25.992 L 53.646,22.1 50.609,28.176 c -3.625,7.254 -12.71,16.091 -19.352,18.822 -2.523,1.038 -4.566,2.112 -4.54,2.387 0.026,0.275 2.621,1.717 5.767,3.206 7.302,3.453 14.52,10.67 17.973,17.972 1.488,3.147 2.765,5.744 2.838,5.772 0.073,0.027 1.366,-2.471 2.873,-5.552 z" id="path930-9-3"/>
   </g>
  <g id="layer10">
       <path style="fill:#00d400;fill-opacity:1" d="m 314.10011,120.28076 c 3.55719,-7.27064 11.52719,-15.1482 19.0296,-18.80888 l 5.96457,-2.91032 -3,-0.98275 C 327.4027,94.73157 316.97002,84.67344 313.18252,75.4896 l -1.60535,-3.8926 -3.03653,6.07662 c -3.62463,7.25356 -12.71037,16.09041 -19.35224,18.82215 -2.52264,1.03754 -4.56571,2.11143 -4.54016,2.38643 0.0256,0.275 2.62111,1.71764 5.76791,3.20587 7.30169,3.45322 14.51905,10.67058 17.97226,17.97227 1.48823,3.1468 2.76556,5.74404 2.83852,5.77166 0.073,0.0276 1.36589,-2.47045 2.87318,-5.55124 z" id="path1143"/>
   </g>
  <g id="layer11">
       <path style="fill:#4e87e8;stroke-width:0.517909" d="m 215.3653,27.762264 c -1.62645,-3.158053 -4.43901,-6.049981 -7.77744,-7.99698 L 204.824,18.1534 l 2.88602,-1.432736 c 3.78283,-1.877969 6.50633,-4.343384 8.46758,-7.6653346 L 217.7701,6.358 l 1.39988,2.1708291 c 1.77719,2.7562509 5.63893,6.0026719 8.80118,7.3989409 1.34972,0.596001 2.45357,1.205999 2.45284,1.355561 -5.4e-4,0.14955 -1.33466,0.905104 -2.96438,1.679002 -3.56094,1.691007 -7.29389,5.192371 -9.22127,8.649067 -0.77718,1.393852 -1.47001,2.525163 -1.53967,2.514042 -0.0695,-0.0111 -0.66967,-1.074579 -1.33338,-2.363178 z" id="path1147"/>
   </g>
  <g id="layer12">
       <path style="fill:#535e64" d="m 154.8602,288.44144 c 0,-4.125 0.17651,-5.8125 0.39226,-3.75 0.21574,2.0625 0.21574,5.4375 0,7.5 -0.21575,2.0625 -0.39226,0.375 -0.39226,-3.75 z m -32.69683,-0.96417 c 0.33749,-1.90529 1.2364,-5.05529 1.99758,-7 l 1.38395,-3.53583 -0.59676,3.96857 c -0.32823,2.18271 -1.22714,5.33271 -1.99758,7 l -1.40081,3.03143 z m 65.39103,0.54415 c -1.20267,-3.16326 -2.55876,-11.30842 -1.76146,-10.57998 0.81318,0.74295 3.7197,12.34468 3.21826,12.84612 -0.23719,0.23719 -0.89275,-0.78257 -1.4568,-2.26614 z M 90.52774,277.69196 c -0.005,-1.70372 5.30582,-11.21817 6.27194,-11.23611 0.79828,-0.0148 -1.00362,3.85191 -4.36002,9.35625 -1.0495,1.72114 -1.90987,2.56707 -1.91192,1.87986 z m 125.74625,-5.26545 c -3.01602,-5.46844 -3.56231,-7.61786 -1.13991,-4.48507 2.36049,3.05274 5.52891,9.50184 4.66023,9.48559 -0.42367,-0.008 -2.00782,-2.25816 -3.52032,-5.00052 z M 63.524,256.86206 c 0,-1.29973 8.80065,-9.9533 9.45599,-9.29796 0.27386,0.27385 -1.74171,2.70387 -4.47903,5.40004 -2.73733,2.69616 -4.97696,4.45023 -4.97696,3.89792 z M 47.523997,226.94144 c 5.1739,-3.24998 7,-4.05498 7,-3.08577 0,0.75561 -10.007557,6.58618 -11.265017,6.56318 -0.67924,-0.0124 1.24002,-1.57725 4.265017,-3.47741 z m 216.499993,2.10944 c -1.1,-0.70711 -3.27654,-2.06947 -4.83676,-3.02745 -1.56022,-0.95799 -2.62173,-1.95683 -2.35891,-2.21966 0.48359,-0.48358 10.69567,5.45848 10.69567,6.22344 0,0.74268 -1.45899,0.33569 -3.5,-0.97633 z M 31.024,198.68077 c 1.30511,-1.17744 8.70188,-3.26716 11.11602,-3.14047 1.03619,0.0544 0.084,0.66022 -2.11602,1.34632 -6.71738,2.0949 -10.07534,2.76431 -9,1.79415 z m 241.49999,-1.23934 c -3.025,-0.99216 -4.91177,-1.84804 -4.19282,-1.90196 2.04157,-0.15312 10.58542,2.0762 11.64282,3.03792 1.43707,1.30703 -1.25135,0.89711 -7.45,-1.13596 z m -246.99999,-32 c 0,-0.5641 2.83334,-1 6.5,-1 3.66667,0 6.5,0.4359 6.5,1 0,0.5641 -2.83333,1 -6.5,1 -3.66666,0 -6.5,-0.4359 -6.5,-1 z m 245.99999,0 c 0,-0.5641 2.83333,-1 6.5,-1 3.66667,0 6.5,0.4359 6.5,1 0,0.5641 -2.83333,1 -6.5,1 -3.66667,0 -6.5,-0.4359 -6.5,-1 z M 35.35585,134.08657 c -2.01749,-0.62983 -4.04156,-1.51923 -4.49795,-1.97643 -0.87944,-0.88102 2.56763,-0.17172 9.1661,1.88609 2.97104,0.92656 3.3569,1.24592 1.5,1.24148 -1.375,-0.003 -4.15067,-0.52131 -6.16815,-1.15114 z m 237.66814,-0.72278 c 6.68929,-2.11292 8.39511,-2.37268 6.95,-1.05833 -1.0519,0.95672 -9.58533,3.18833 -11.64282,3.04475 -0.71895,-0.0502 1.39282,-0.94406 4.69282,-1.98642 z M 47.523997,103.94142 c -3.024997,-1.90016 -4.944257,-3.46499 -4.265017,-3.47741 1.25746,-0.023 11.265017,5.80757 11.265017,6.56318 0,0.96921 -1.8261,0.16421 -7,-3.08577 z m 209.450413,2.58022 c 0.75093,-1.21503 9.74009,-6.22304 10.25173,-5.71141 0.39969,0.3997 -9.2571,6.63119 -10.27619,6.63119 -0.2992,0 -0.28819,-0.4139 0.0245,-0.91978 z M 67.54458,78.962387 c -2.41771,-2.46347 -4.17178,-4.7031 -3.89792,-4.97696 0.27386,-0.27386 2.70387,1.74171 5.40004,4.47903 2.69616,2.73733 4.45023,4.97696 3.89792,4.97696 -0.55231,0 -2.98233,-2.01557 -5.40004,-4.47903 z m 169.97941,3.89965 c 0,-1.29973 8.80065,-9.9533 9.45599,-9.29796 0.27386,0.27385 -1.74171,2.70387 -4.47903,5.40004 -2.73733,2.69616 -4.97696,4.45023 -4.97696,3.89792 z M 93.07602,58.969252 c -1.6214,-3.00586 -2.72752,-5.68565 -2.45807,-5.95511 0.26946,-0.26945 1.96401,2.19145 3.76568,5.46868 1.80166,3.27723 2.90779,5.95703 2.45806,5.9551 -0.44973,-0.002 -2.14428,-2.46282 -3.76567,-5.46867 z m 120.47977,5.22269 c -0.0546,-1.28716 5.42714,-10.72093 6.23852,-10.73611 0.42368,-0.008 -0.10359,1.67309 -1.17171,3.73559 -2.18703,4.22305 -5.01865,8.13535 -5.06681,7.00052 z m -90.4229,-16.64769 c -0.9695,-3.455274 -1.52975,-6.515304 -1.24499,-6.800064 0.70636,-0.70636 3.88778,10.442154 3.39863,11.909644 -0.215,0.64501 -1.18414,-1.6543 -2.15364,-5.10958 z m 62.48997,4.58999 c -0.14721,-2.69076 2.01019,-10.642184 3.06421,-11.293604 0.96217,-0.59466 0.43531,2.19643 -1.71789,9.100784 -0.6861,2.2 -1.29194,3.18677 -1.34632,2.19282 z M 154.8602,42.441418 c 0,-4.125 0.17651,-5.8125 0.39226,-3.75 0.21574,2.0625 0.21574,5.4375 0,7.500004 -0.21575,2.0625 -0.39226,0.375 -0.39226,-3.750004 z" id="path930-1"/>
   </g>
</svg>