<?xml version="1.0" encoding="utf-8"?>
<svg width="111.125mm" height="111.125mm" viewBox="0 0 111.125 111.125" version="1.1" id="svg8" xmlns="http://www.w3.org/2000/svg">
  <g id="layer1">
    <g id="g207"   transform="translate(137.93016,26.800485)">
      <g id="g165" transform="translate(-5.7838604,-101.04888)">
        <path  style="fill:#fdf7d1;stroke-width:0.264583" d="m -115.72629,102.80199 c -1.18943,-1.04434 -1.4995,-2.31465 -0.88138,-3.610872 1.02928,-2.158418 3.53679,-2.522802 5.1614,-0.75004 0.7597,0.828971 0.86802,1.106625 0.73986,1.896392 -0.2803,1.72727 -1.42852,2.87924 -3.148,3.15828 -0.76364,0.12392 -1.06984,0.0104 -1.87188,-0.69376 z" id="path191"/>
        <path  style="fill:#dbe3ed;stroke-width:0.264583" d="m -37.748586,155.64476 -0.504029,-0.59531 0.595313,0.50402 c 0.327421,0.27722 0.595312,0.54511 0.595312,0.59532 0,0.21173 -0.212934,0.0554 -0.686596,-0.50403 z m -2.27343,-0.90834 c 0.190995,-0.0764 0.419201,-0.067 0.507119,0.0209 0.08792,0.0879 -0.06835,0.15045 -0.347266,0.13897 -0.308226,-0.0127 -0.370919,-0.0754 -0.159853,-0.15986 z m -88.544034,-15.42968 c 0,-0.3638 0.0601,-0.51263 0.13346,-0.33073 0.0734,0.1819 0.0734,0.47956 0,0.66146 -0.0734,0.1819 -0.13346,0.0331 -0.13346,-0.33073 z m 43.600234,-10.25261 -0.911799,-0.99218 0.992188,0.9118 c 0.923506,0.84868 1.11384,1.07257 0.911799,1.07257 -0.04421,0 -0.490699,-0.44648 -0.992188,-0.99219 z m 5.536742,-3.96875 c -0.329107,-0.41964 -0.319749,-0.429 0.0999,-0.0999 0.254661,0.19972 0.46302,0.40808 0.46302,0.46302 0,0.21776 -0.217273,0.0776 -0.562917,-0.36313 z m 14.2875,-3.175 c -0.329107,-0.41964 -0.319749,-0.429 0.0999,-0.0999 0.254661,0.19972 0.46302,0.40808 0.46302,0.46302 0,0.21776 -0.217273,0.0776 -0.562917,-0.36313 z m 3.605626,-0.0661 c 0.26339,-0.29104 0.538421,-0.52917 0.611182,-0.52917 0.07276,0 -0.08321,0.23813 -0.346599,0.52917 -0.26339,0.29104 -0.538422,0.52916 -0.611182,0.52916 -0.07276,0 0.08321,-0.23812 0.346599,-0.52916 z m 37.215733,-0.79375 c 0,-0.3638 0.06006,-0.51263 0.133453,-0.33073 0.0734,0.1819 0.0734,0.47956 0,0.66146 -0.0734,0.1819 -0.133453,0.0331 -0.133453,-0.33073 z m -41.275,-0.26459 c 0,-0.3638 0.06005,-0.51263 0.133453,-0.33072 0.0734,0.1819 0.0734,0.47955 0,0.66145 -0.0734,0.1819 -0.133453,0.0331 -0.133453,-0.33073 z m -5.102609,-1.78593 c -0.329107,-0.41965 -0.319749,-0.42901 0.0999,-0.0999 0.254661,0.19972 0.46302,0.40808 0.46302,0.46302 0,0.21776 -0.217273,0.0776 -0.562917,-0.36312 z m 46.642192,-1.12448 c 0,-0.3638 0.06006,-0.51263 0.133454,-0.33073 0.0734,0.1819 0.0734,0.47956 0,0.66146 -0.0734,0.1819 -0.133454,0.0331 -0.133454,-0.33073 z m -60.102191,-0.0999 c 0,-0.0549 0.208359,-0.2633 0.463021,-0.46302 0.419645,-0.32911 0.429003,-0.31975 0.0999,0.0999 -0.345644,0.44073 -0.562917,0.58088 -0.562917,0.36312 z m -1.852084,-0.52916 c 0,-0.055 0.20836,-0.2633 0.463021,-0.46303 0.419645,-0.3291 0.429004,-0.31974 0.0999,0.0999 -0.345643,0.44073 -0.562917,0.58089 -0.562917,0.36313 z m 3.175,-0.79375 c 0,-0.055 0.20836,-0.2633 0.463021,-0.46303 0.419645,-0.3291 0.429004,-0.31974 0.0999,0.0999 -0.345643,0.44073 -0.562917,0.58089 -0.562917,0.36313 z m 17.712841,-1.42146 -0.911799,-0.99219 0.992188,0.9118 c 0.923506,0.84868 1.11384,1.07257 0.911799,1.07257 -0.04421,0 -0.490699,-0.44648 -0.992188,-0.99218 z m -48.861614,-5.09323 c 0,-0.65485 0.0516,-0.92274 0.11467,-0.59531 0.0631,0.32742 0.0631,0.8632 0,1.19062 -0.0631,0.32742 -0.11467,0.0595 -0.11467,-0.59531 z m 4.5415,-4.56406 -0.7771,-0.8599 0.85989,0.7771 c 0.47295,0.42741 0.8599,0.81437 0.8599,0.8599 0,0.20441 -0.21832,0.0244 -0.94269,-0.7771 z m 0.52917,-0.52917 -0.7771,-0.8599 0.85989,0.77711 c 0.80154,0.72437 0.98151,0.94268 0.77711,0.94268 -0.0455,0 -0.43249,-0.38695 -0.8599,-0.85989 z m -10.98359,-9.921876 -0.64143,-0.727604 0.7276,0.641432 c 0.40018,0.35279 0.72761,0.680212 0.72761,0.727604 0,0.207507 -0.21426,0.03862 -0.81378,-0.641432 z m 0.52917,-0.529167 -0.64143,-0.727604 0.7276,0.641432 c 0.68005,0.599517 0.84894,0.813776 0.64143,0.813776 -0.0474,0 -0.37481,-0.327422 -0.7276,-0.727604 z m 5.38375,-4.564062 c 0,-0.654844 0.0516,-0.922735 0.11467,-0.595313 0.0631,0.327422 0.0631,0.863203 0,1.190625 -0.0631,0.327422 -0.11467,0.05953 -0.11467,-0.595312 z m 13.42169,-10.687318 c 0,-0.05719 0.18478,-0.17489 0.41062,-0.261553 0.235455,-0.09035 0.341659,-0.046 0.248965,0.103985 -0.155375,0.251408 -0.659585,0.371858 -0.659585,0.157568 z m 8.466667,-0.160599 c -0.218282,-0.141064 -0.277813,-0.25648 -0.132292,-0.25648 0.145521,0 0.443177,0.115416 0.661458,0.25648 0.218282,0.141064 0.277813,0.25648 0.132292,0.25648 -0.145521,0 -0.443177,-0.115416 -0.661458,-0.25648 z m -2.401277,-1.521354 -0.641432,-0.727604 0.727605,0.641433 c 0.400182,0.352788 0.727604,0.68021 0.727604,0.727604 0,0.207506 -0.21426,0.03862 -0.813777,-0.641433 z" id="path189"/>
        <path  style="fill:#d8dce3;stroke-width:0.264583" d="m -40.699434,167.48486 c 0.0029,-0.58208 0.05712,-0.78905 0.120407,-0.45993 0.06329,0.32912 0.06088,0.80537 -0.0053,1.05833 -0.06622,0.25297 -0.118004,-0.0163 -0.115067,-0.5984 z m -53.269277,-0.7364 c -0.643125,-0.33227 -7.907929,-5.60881 -16.144009,-11.72567 l -14.97469,-11.12154 -0.0584,-2.2101 -0.0584,-2.2101 0.8779,0.66434 c 4.97699,3.76626 29.15655,21.43072 29.856854,21.81203 0.7184,0.39116 1.467546,0.50036 3.432506,0.50036 2.21942,0 2.652863,-0.08 3.704167,-0.68374 0.654843,-0.37606 15.120937,-10.46384 32.146875,-22.41729 29.445452,-20.67285 30.96061,-21.69871 31.045597,-21.01992 0.04914,0.39248 0.01225,1.3307 -0.08199,2.08493 l -0.171334,1.37131 -31.535722,22.31142 c -17.344644,12.27129 -31.947847,22.52217 -32.451558,22.77975 -1.370021,0.70058 -4.097168,0.63431 -5.587757,-0.13578 z m 53.269277,-19.37193 c 0.0029,-0.58208 0.05712,-0.78905 0.120407,-0.45994 0.06329,0.32912 0.06088,0.80537 -0.0053,1.05834 -0.06622,0.25296 -0.118004,-0.0163 -0.115067,-0.5984 z m -63.897456,-0.30752 c 0.18191,-0.0734 0.47956,-0.0734 0.66146,0 0.1819,0.0734 0.0331,0.13345 -0.33073,0.13345 -0.3638,0 -0.51263,-0.06 -0.33073,-0.13345 z m -23.95935,-8.9529 c 0.005,-0.43656 0.0647,-0.58312 0.13177,-0.32569 0.0671,0.25743 0.0627,0.61462 -0.01,0.79375 -0.0725,0.17913 -0.12737,-0.0315 -0.12197,-0.46806 z m 3.58644,-37.88985 c 0.32742,-0.0631 0.8632,-0.0631 1.19062,0 0.32742,0.0631 0.0595,0.11467 -0.59531,0.11467 -0.65484,0 -0.92273,-0.0516 -0.59531,-0.11467 z m 6.9662,-0.232195 c 0.0127,-0.308226 0.0754,-0.370919 0.15985,-0.159853 0.0764,0.190998 0.067,0.419198 -0.0209,0.507118 -0.0879,0.0879 -0.15045,-0.0683 -0.13896,-0.347265 z m 13.14213,0.232195 c 0.32742,-0.0631 0.8632,-0.0631 1.19063,0 0.32742,0.0631 0.0595,0.11467 -0.59532,0.11467 -0.65484,0 -0.92273,-0.0516 -0.59531,-0.11467 z m 69.38698,-10.832174 c 0,-0.142548 0.386953,-0.608876 0.859896,-1.036284 l 0.859896,-0.777106 -0.79375,0.92472 c -0.436563,0.508596 -0.823516,0.974924 -0.859896,1.036285 -0.03638,0.06136 -0.06615,-0.0051 -0.06615,-0.147615 z m 11.1125,-11.33839 c 0.341776,-0.363802 0.68094,-0.661458 0.7537,-0.661458 0.07276,0 -0.147341,0.297656 -0.489117,0.661458 -0.341775,0.363802 -0.680939,0.661459 -0.7537,0.661459 -0.07276,0 0.147341,-0.297657 0.489117,-0.661459 z" id="path187"/>
        <path  style="fill:#bad1f3;stroke-width:0.264583" d="m -41.798307,160.27571 c -0.997643,-0.99765 -1.240118,-1.94377 -0.840221,-3.27851 0.380161,-1.26887 1.556247,-2.07763 3.023309,-2.07906 1.483069,-0.001 2.817812,1.36601 2.817812,2.88686 0,1.59072 -1.277479,2.93322 -2.973017,3.12433 -1.110586,0.12518 -1.31495,0.0593 -2.027883,-0.65362 z m -41.8641,-32.27991 c -0.329107,-0.41964 -0.319749,-0.429 0.0999,-0.0999 0.254662,0.19973 0.463021,0.40808 0.463021,0.46303 0,0.21776 -0.217273,0.0776 -0.562917,-0.36313 z m 18.554584,0.0985 c 0,-0.0549 0.208359,-0.2633 0.463021,-0.46302 0.419645,-0.32911 0.429003,-0.31975 0.0999,0.0999 -0.345644,0.44073 -0.562917,0.58088 -0.562917,0.36312 z m -22.468695,-4.28777 c 0.0127,-0.30823 0.07539,-0.37092 0.159851,-0.15986 0.07643,0.191 0.06703,0.4192 -0.02088,0.50712 -0.08792,0.0879 -0.150452,-0.0683 -0.138964,-0.34726 z m 21.252932,-7.58473 -0.504029,-0.59531 0.595313,0.50403 c 0.559445,0.47366 0.715761,0.68659 0.504028,0.68659 -0.05021,0 -0.318098,-0.26789 -0.595312,-0.59531 z m -18.892571,0.24794 c 0,-0.0455 0.386953,-0.43249 0.859896,-0.8599 l 0.859896,-0.7771 -0.777105,0.8599 c -0.724371,0.80154 -0.942687,0.98151 -0.942687,0.7771 z M -96.259963,82.50465 c -0.401508,-1.151768 -1.651854,-2.488508 -2.814611,-3.00909 l -1.048016,-0.469212 0.904776,-0.382138 c 1.173274,-0.495537 2.318747,-1.652822 2.893414,-2.923251 l 0.45769,-1.011821 0.186502,0.747237 c 0.290888,1.165471 1.409134,2.445202 2.673345,3.059403 l 1.154009,0.560662 -1.008917,0.451706 c -1.2436,0.556776 -2.06521,1.391805 -2.67185,2.715481 l -0.464224,1.01293 z" id="path185"/>
        <path  style="fill:#cbd0d6;stroke-width:0.264583" d="m -34.96535,162.39163 -0.641432,-0.7276 0.727605,0.64143 c 0.680055,0.59952 0.848939,0.81378 0.641432,0.81378 -0.04739,0 -0.374815,-0.32742 -0.727605,-0.72761 z m -10.30605,-10.2604 c -0.37574,-0.39996 -0.793541,-0.60658 -1.038307,-0.51349 -0.330774,0.1258 -0.345162,0.0909 -0.07478,-0.18148 0.270907,-0.27288 0.497157,-0.17489 1.185537,0.51349 0.467908,0.46791 0.784484,0.85074 0.703508,0.85074 -0.08098,0 -0.430157,-0.30117 -0.775962,-0.66926 z m -54.211368,-8.48091 c 0.0127,-0.30823 0.07539,-0.37092 0.159851,-0.15986 0.07643,0.191 0.06703,0.4192 -0.02088,0.50712 -0.08792,0.0879 -0.150452,-0.0684 -0.138964,-0.34726 z m -29.049382,-7.38629 c 0.002,-0.7276 0.0534,-0.99386 0.11419,-0.59167 0.0608,0.40218 0.0592,0.99749 -0.004,1.32291 -0.0628,0.32542 -0.11257,-0.004 -0.11058,-0.73124 z m 105.75766,-12.93219 c 0,-0.0549 0.208359,-0.2633 0.463021,-0.46302 0.419645,-0.32911 0.429003,-0.31975 0.0999,0.0999 -0.345644,0.44073 -0.562917,0.58088 -0.562917,0.36312 z m 2.137556,-10.37319 c 0.0127,-0.30823 0.07539,-0.37092 0.15985,-0.15985 0.07643,0.19099 0.06703,0.41919 -0.02088,0.50711 -0.08792,0.0879 -0.150453,-0.0683 -0.138965,-0.34726 z m -98.710476,-7.65087 c 0.34178,-0.3638 0.68094,-0.66146 0.7537,-0.66146 0.0728,0 -0.14734,0.29766 -0.48911,0.66146 -0.34178,0.3638 -0.68094,0.66146 -0.7537,0.66146 -0.0728,0 0.14734,-0.29766 0.48911,-0.66146 z m 10.31875,-10.31875 c 0.34178,-0.363802 0.68094,-0.661459 0.7537,-0.661459 0.0728,0 -0.14734,0.297657 -0.48911,0.661459 -0.34178,0.363802 -0.68094,0.661458 -0.7537,0.661458 -0.0728,0 0.14734,-0.297656 0.48911,-0.661458 z m 74.612503,-6.085417 c 0.341776,-0.363802 0.68094,-0.661458 0.7537,-0.661458 0.07276,0 -0.147341,0.297656 -0.489116,0.661458 -0.341776,0.363802 -0.68094,0.661458 -0.7537,0.661458 -0.07276,0 0.147341,-0.297656 0.489116,-0.661458 z m 10.034141,-0.06615 -0.641432,-0.727604 0.727604,0.641433 c 0.400182,0.352788 0.727604,0.68021 0.727604,0.727604 0,0.207506 -0.21426,0.03862 -0.813776,-0.641433 z m 0.571944,-0.167159 -0.638707,-0.825028 0.756968,0.719586 c 0.416332,0.395773 0.703749,0.767035 0.638707,0.825028 -0.06504,0.05799 -0.405678,-0.265821 -0.756968,-0.719586 z m -5.771523,-0.428153 c 0,-0.654844 0.0516,-0.922735 0.114663,-0.595313 0.06307,0.327422 0.06307,0.863203 0,1.190625 -0.06306,0.327422 -0.114663,0.05953 -0.114663,-0.595312 z m 0.529167,0 c 0,-0.654844 0.0516,-0.922735 0.114662,-0.595313 0.06307,0.327422 0.06307,0.863203 0,1.190625 -0.06306,0.327422 -0.114662,0.05953 -0.114662,-0.595312 z m -0.529167,-9.525 c 0,-0.654844 0.0516,-0.922735 0.114663,-0.595313 0.06307,0.327422 0.06307,0.863203 0,1.190625 -0.06306,0.327422 -0.114663,0.05953 -0.114663,-0.595312 z m 0.529167,0 c 0,-0.654844 0.0516,-0.922735 0.114662,-0.595313 0.06307,0.327422 0.06307,0.863203 0,1.190625 -0.06306,0.327422 -0.114662,0.05953 -0.114662,-0.595312 z m -5.777249,-0.330729 -0.777105,-0.859896 0.859896,0.777105 c 0.472943,0.427408 0.859896,0.814361 0.859896,0.859896 0,0.204407 -0.218316,0.02444 -0.942687,-0.777105 z m 10.203104,0.777105 c 0,-0.04554 0.386953,-0.432488 0.859896,-0.859896 l 0.859895,-0.777105 -0.777105,0.859896 c -0.724371,0.801543 -0.942686,0.981512 -0.942686,0.777105 z m -9.80961,-1.17398 -0.641432,-0.727605 0.727604,0.641433 c 0.400182,0.352789 0.727604,0.680211 0.727604,0.727605 0,0.207505 -0.214259,0.03862 -0.813776,-0.641433 z" id="path183"/>
        <path  style="fill:#a5b8d6;stroke-width:0.264583" d="m -46.057823,163.56561 c 0,-0.0455 0.386953,-0.43248 0.859896,-0.85989 l 0.859895,-0.77711 -0.777105,0.8599 c -0.724371,0.80154 -0.942686,0.98151 -0.942686,0.7771 z m 8.73125,-2.39835 c 0,-0.0549 0.208359,-0.2633 0.463021,-0.46302 0.419645,-0.32911 0.429003,-0.31975 0.0999,0.0999 -0.345644,0.44073 -0.562917,0.58089 -0.562917,0.36313 z m 0.550055,-3.49403 c 0.0127,-0.30822 0.07539,-0.37092 0.159851,-0.15985 0.07643,0.19099 0.06703,0.4192 -0.02088,0.50712 -0.08792,0.0879 -0.150452,-0.0684 -0.138964,-0.34727 z m -14.109951,-0.56155 c 0.327422,-0.0631 0.863203,-0.0631 1.190625,0 0.327422,0.0631 0.05953,0.11466 -0.595313,0.11466 -0.654843,0 -0.922734,-0.0516 -0.595312,-0.11466 z m 20.108333,0 c 0.327422,-0.0631 0.863203,-0.0631 1.190625,0 0.327422,0.0631 0.05953,0.11466 -0.595312,0.11466 -0.654844,0 -0.922735,-0.0516 -0.595313,-0.11466 z m -4.167187,-4.70807 c 0.341775,-0.3638 0.680939,-0.66146 0.7537,-0.66146 0.07276,0 -0.147341,0.29766 -0.489117,0.66146 -0.341776,0.36381 -0.68094,0.66146 -0.7537,0.66146 -0.07276,0 0.147341,-0.29765 0.489117,-0.66146 z m -74.327027,-8.75329 c 0.0127,-0.30823 0.0754,-0.37092 0.15985,-0.15986 0.0764,0.191 0.067,0.4192 -0.0209,0.50712 -0.0879,0.0879 -0.15045,-0.0684 -0.13896,-0.34726 z m -19.28389,-9.23837 c 0.005,-0.43657 0.0647,-0.58313 0.13177,-0.3257 0.0671,0.25743 0.0627,0.61462 -0.01,0.79375 -0.0725,0.17913 -0.12737,-0.0315 -0.12197,-0.46805 z m 57.363,-9.22802 c 0,-0.055 0.208359,-0.2633 0.463021,-0.46303 0.419645,-0.3291 0.429003,-0.31974 0.0999,0.0999 -0.345644,0.44073 -0.562917,0.58089 -0.562917,0.36313 z m -16.342783,-2.54594 c 0,-0.50932 0.05445,-0.71768 0.121002,-0.46302 0.06655,0.25466 0.06655,0.67138 0,0.92604 -0.06655,0.25466 -0.121002,0.0463 -0.121002,-0.46302 z m 1.567891,0 c 0,-0.3638 0.06006,-0.51263 0.133454,-0.33073 0.0734,0.1819 0.0734,0.47956 0,0.66146 -0.0734,0.1819 -0.133454,0.0331 -0.133454,-0.33073 z m 24.870834,-2.11667 c 0,-0.3638 0.06006,-0.51263 0.133453,-0.33073 0.0734,0.1819 0.0734,0.47956 0,0.66146 -0.0734,0.1819 -0.133453,0.0331 -0.133453,-0.33073 z m -22.266775,-3.83646 c 0.341775,-0.3638 0.680939,-0.66146 0.7537,-0.66146 0.07276,0 -0.147341,0.29766 -0.489117,0.66146 -0.341776,0.36381 -0.68094,0.66146 -0.7537,0.66146 -0.07276,0 0.147341,-0.29765 0.489117,-0.66146 z m 62.727139,-4.51996 c 0.0127,-0.30823 0.07539,-0.37092 0.15985,-0.15985 0.07643,0.19099 0.06703,0.41919 -0.02088,0.50711 -0.08792,0.0879 -0.150453,-0.0683 -0.138965,-0.34726 z" id="path181"/>
        <path  style="fill:#98a1ac;stroke-width:0.264583" d="m -45.79324,162.45778 c 0.341776,-0.3638 0.68094,-0.66146 0.7537,-0.66146 0.07276,0 -0.147341,0.29766 -0.489117,0.66146 -0.341775,0.3638 -0.680939,0.66146 -0.7537,0.66146 -0.07276,0 0.147341,-0.29766 0.489117,-0.66146 z m 5.098264,-0.31565 c 0.257432,-0.0671 0.614619,-0.0627 0.79375,0.01 0.179131,0.0725 -0.03149,0.12736 -0.468056,0.12197 -0.436562,-0.005 -0.583125,-0.0647 -0.325694,-0.13177 z m 0,-1.05833 c 0.257432,-0.0671 0.614619,-0.0627 0.79375,0.01 0.179131,0.0725 -0.03149,0.12736 -0.468056,0.12197 -0.436562,-0.005 -0.583125,-0.0647 -0.325694,-0.13178 z m 2.574653,-0.71029 c 0,-0.0549 0.208359,-0.2633 0.463021,-0.46302 0.419645,-0.32911 0.429003,-0.31975 0.0999,0.0999 -0.345644,0.44073 -0.562917,0.58089 -0.562917,0.36313 z m -12.766146,-2.73266 c 0.327422,-0.0631 0.863203,-0.0631 1.190625,0 0.327422,0.0631 0.05953,0.11466 -0.595313,0.11466 -0.654843,0 -0.922734,-0.0516 -0.595312,-0.11466 z m 20.108333,0 c 0.327422,-0.0631 0.863203,-0.0631 1.190625,0 0.327422,0.0631 0.05953,0.11466 -0.595312,0.11466 -0.654844,0 -0.922735,-0.0516 -0.595313,-0.11466 z m -4.696354,-5.50182 c 0.341776,-0.3638 0.68094,-0.66146 0.7537,-0.66146 0.07276,0 -0.147341,0.29766 -0.489117,0.66146 -0.341775,0.3638 -0.680939,0.66146 -0.7537,0.66146 -0.07276,0 0.147341,-0.29766 0.489117,-0.66146 z m -90.99578,-18.01371 c 0.0127,-0.30823 0.0754,-0.37092 0.15985,-0.15986 0.0764,0.191 0.067,0.4192 -0.0209,0.50712 -0.0879,0.0879 -0.15046,-0.0683 -0.13897,-0.34726 z M -22.753601,112.1649 c 0.0127,-0.30823 0.07539,-0.37092 0.159851,-0.15985 0.07643,0.19099 0.06703,0.41919 -0.02088,0.50711 -0.08792,0.0879 -0.150453,-0.0683 -0.138965,-0.34726 z m 0.474527,-3.74827 c -0.329107,-0.41964 -0.319749,-0.429 0.0999,-0.0999 0.254661,0.19972 0.46302,0.40808 0.46302,0.46302 0,0.21776 -0.217273,0.0776 -0.562917,-0.36313 z M -35.209907,89.39611 c 0,-0.340465 1.276771,-1.552878 1.451407,-1.378244 0.07182,0.07182 -0.225372,0.471592 -0.660416,0.888391 -0.435044,0.416799 -0.790991,0.637233 -0.790991,0.489853 z m 10.977565,-0.627549 c -0.4168,-0.435044 -0.637233,-0.79099 -0.489854,-0.79099 0.340465,0 1.552879,1.276772 1.378246,1.451406 -0.07182,0.07182 -0.471593,-0.225371 -0.888392,-0.660416 z m -5.084669,-0.526406 c 0,-0.654844 0.0516,-0.922735 0.114662,-0.595313 0.06307,0.327422 0.06307,0.863203 0,1.190625 -0.06306,0.327422 -0.114662,0.05953 -0.114662,-0.595312 z m -28.696672,0.348426 c 0.190995,-0.07643 0.419201,-0.06703 0.507119,0.02089 0.08792,0.08792 -0.06835,0.150453 -0.347265,0.138964 -0.308227,-0.01269 -0.37092,-0.07539 -0.159854,-0.159852 z m 23.06836,-5.110926 c 0,-0.145521 0.416718,-0.264584 0.926041,-0.264584 0.509323,0 0.926042,0.119063 0.926042,0.264584 0,0.145521 -0.416719,0.264583 -0.926042,0.264583 -0.509323,0 -0.926041,-0.119062 -0.926041,-0.264583 z m 9.525,0 c 0,-0.145521 0.416718,-0.264584 0.926041,-0.264584 0.509323,0 0.926042,0.119063 0.926042,0.264584 0,0.145521 -0.416719,0.264583 -0.926042,0.264583 -0.509323,0 -0.926041,-0.119062 -0.926041,-0.264583 z m -3.896688,-4.7625 c 0,-0.654844 0.0516,-0.922735 0.114662,-0.595313 0.06307,0.327422 0.06307,0.863203 0,1.190625 -0.06306,0.327422 -0.114662,0.05953 -0.114662,-0.595312 z m -5.36275,-0.395832 c -0.341233,-0.363228 -0.561668,-0.719174 -0.489852,-0.79099 0.07182,-0.07182 0.471593,0.22537 0.888391,0.660415 0.416801,0.435044 0.637233,0.79099 0.489855,0.79099 -0.147381,0 -0.547158,-0.297187 -0.888394,-0.660415 z m 10.447419,-0.130575 c 0.416799,-0.435045 0.816576,-0.732232 0.888392,-0.660415 0.174633,0.174634 -1.037781,1.451405 -1.378246,1.451405 -0.147379,0 0.07305,-0.355946 0.489854,-0.79099 z" id="path179"/>
        <path  style="fill:#4a89f7;stroke-width:0.264583" d="m -78.469282,132.1586 c -3.873164,-0.77217 -6.917761,-3.00924 -8.329411,-6.12017 -0.741249,-1.63353 -0.724358,-4.72264 0.03699,-6.76395 0.742622,-1.99113 3.363259,-4.66192 5.723813,-5.83336 6.665569,-3.30784 15.129307,-1.27388 17.829919,4.28479 0.349891,0.72018 0.811745,1.21659 1.305203,1.40285 0.669301,0.25263 0.763699,0.42116 0.763699,1.36348 0,0.8402 -0.137512,1.16532 -0.629121,1.48743 -0.423794,0.27768 -0.686536,0.77128 -0.805048,1.51241 -0.397021,2.48283 -3.138588,5.7788 -6.022216,7.24005 -2.811735,1.42481 -6.911345,2.01708 -9.873824,1.42647 z m 6.095974,-1.45888 c 3.557953,-0.91362 6.418318,-3.05379 7.667453,-5.73693 0.820087,-1.76153 0.819266,-2.24544 -0.0051,-3.00943 -0.809652,-0.75036 -0.844812,-1.59964 -0.09909,-2.39342 l 0.562369,-0.59861 -0.70872,-1.20934 c -0.389798,-0.66514 -1.297459,-1.67471 -2.017025,-2.2435 -6.856656,-5.41987 -18.862466,-0.89307 -18.846176,7.10598 0.004,1.95405 0.459952,3.2686 1.658806,4.78228 2.345957,2.96201 7.495712,4.40502 11.787478,3.30297 z m -4.773057,-4.41222 c -2.279885,-0.79694 -3.597013,-2.9139 -3.058123,-4.91518 0.540644,-2.0078 3.236114,-3.76142 5.781638,-3.76142 3.057517,0 5.522931,2.67045 4.832525,5.23443 -0.713254,2.64882 -4.669589,4.45114 -7.55604,3.44217 z" id="path177"/>
        <path  style="fill:#f35366;stroke-width:0.264583" d="m -124.14688,167.33062 -0.96301,-0.97803 0.63228,-0.28809 c 0.34776,-0.15845 0.63411,-0.37993 0.63634,-0.49219 0.002,-0.11226 0.11143,-0.37379 0.24268,-0.58117 0.19122,-0.30214 0.37907,-0.21015 0.94551,0.46302 0.38878,0.46204 0.90465,0.84086 1.14638,0.84182 0.29475,0.001 0.18395,0.1702 -0.33641,0.51323 -0.42675,0.28132 -0.903,0.73377 -1.05833,1.00546 -0.26199,0.45823 -0.35212,0.4232 -1.24544,-0.48405 z" id="path175"/>
        <path  style="fill:#798593;stroke-width:0.264583" d="m -35.229933,162.9208 -0.641432,-0.7276 0.727604,0.64143 c 0.680056,0.59952 0.84894,0.81377 0.641432,0.81377 -0.04739,0 -0.374814,-0.32742 -0.727604,-0.7276 z m -5.337786,-9.23721 c 0.181901,-0.0734 0.479557,-0.0734 0.661458,0 0.181901,0.0734 0.03307,0.13346 -0.330729,0.13346 -0.363802,0 -0.51263,-0.0601 -0.330729,-0.13346 z m -5.245547,-1.34612 -0.641432,-0.72761 0.727604,0.64144 c 0.680056,0.59951 0.848939,0.81377 0.641432,0.81377 -0.04739,0 -0.374814,-0.32742 -0.727604,-0.7276 z m -58.646294,-12.15575 c 0.25743,-0.0671 0.61462,-0.0627 0.79375,0.01 0.17913,0.0725 -0.0315,0.12737 -0.46805,0.12197 -0.43657,-0.005 -0.58313,-0.0647 -0.3257,-0.13177 z m -21.97021,-2.46248 c 0,-0.50932 0.0545,-0.71768 0.121,-0.46302 0.0665,0.25466 0.0665,0.67138 0,0.92604 -0.0666,0.25466 -0.121,0.0463 -0.121,-0.46302 z m 6.02403,-31.92437 c 0,-0.1444 0.32742,-0.5512 0.7276,-0.90399 l 0.72761,-0.64143 -0.66146,0.79375 c -0.3638,0.43656 -0.69122,0.84336 -0.7276,0.90399 -0.0364,0.0606 -0.0661,-0.008 -0.0661,-0.15232 z m 11.17063,-11.343728 c 0.39577,-0.416332 0.76703,-0.703749 0.82503,-0.638706 0.058,0.06504 -0.26582,0.405677 -0.71959,0.756967 l -0.82503,0.638707 z m 50.940308,-7.971716 c 0.181901,-0.0734 0.479557,-0.0734 0.661458,0 0.181901,0.0734 0.03307,0.133452 -0.330729,0.133452 -0.363802,0 -0.512631,-0.06005 -0.330729,-0.133452 z" id="path173"/>
        <path  style="fill:#687686;stroke-width:0.264583" d="m -91.367719,169.55859 c 0.181901,-0.0734 0.479557,-0.0734 0.661458,0 0.181901,0.0734 0.03307,0.13346 -0.330729,0.13346 -0.363802,0 -0.51263,-0.0601 -0.330729,-0.13346 z m 51.197452,-2.07373 c 0.0029,-0.58208 0.05712,-0.78905 0.120406,-0.45993 0.06329,0.32912 0.06088,0.80537 -0.0053,1.05833 -0.06622,0.25297 -0.118005,-0.0163 -0.115068,-0.5984 z m 4.452083,-10.07621 c 0.0127,-0.30823 0.07539,-0.37092 0.15985,-0.15985 0.07643,0.19099 0.06703,0.4192 -0.02087,0.50711 -0.08792,0.0879 -0.150453,-0.0684 -0.138965,-0.34726 z m -4.452083,-10.03212 c 0.0029,-0.58208 0.05712,-0.78905 0.120406,-0.45994 0.06329,0.32912 0.06088,0.80537 -0.0053,1.05834 -0.06622,0.25296 -0.118005,-0.0163 -0.115068,-0.5984 z m -86.300003,-8.48871 c 0.0127,-0.30823 0.0754,-0.37092 0.15985,-0.15986 0.0764,0.191 0.067,0.4192 -0.0209,0.50712 -0.0879,0.0879 -0.15046,-0.0684 -0.13897,-0.34726 z m 17.42159,-33.91077 -0.64143,-0.7276 0.7276,0.64143 c 0.68005,0.59952 0.84894,0.81377 0.64143,0.81377 -0.0474,0 -0.37481,-0.32742 -0.7276,-0.7276 z m -9.99237,-5.093229 c 0,-0.363802 0.0601,-0.51263 0.13346,-0.330729 0.0734,0.181901 0.0734,0.479558 0,0.661458 -0.0734,0.1819 -0.13346,0.0331 -0.13346,-0.330729 z m -5.92875,-0.186724 c 0.32742,-0.06307 0.8632,-0.06307 1.19062,0 0.32742,0.06306 0.0595,0.114662 -0.59531,0.114662 -0.65484,0 -0.92273,-0.0516 -0.59531,-0.114662 z m 20.10833,0 c 0.32742,-0.06307 0.8632,-0.06307 1.19063,0 0.32742,0.06306 0.0595,0.114662 -0.59532,0.114662 -0.65484,0 -0.92273,-0.0516 -0.59531,-0.114662 z m -6.3176,-3.186713 c -0.32911,-0.419645 -0.31975,-0.429004 0.0999,-0.0999 0.25466,0.19972 0.46302,0.40808 0.46302,0.463021 0,0.217762 -0.21727,0.07761 -0.56291,-0.363125 z m -3.47198,-1.299708 c 0.1819,-0.0734 0.47955,-0.0734 0.66146,0 0.1819,0.0734 0.0331,0.133454 -0.33073,0.133454 -0.36381,0 -0.51263,-0.06006 -0.33073,-0.133454 z m -4.98097,-0.816959 -0.64143,-0.727604 0.72761,0.641432 c 0.68005,0.599517 0.84893,0.813776 0.64143,0.813776 -0.0474,0 -0.37482,-0.327422 -0.72761,-0.727604 z" id="path171"/>
        <path  style="fill:#576676;stroke-width:0.264583" d="m -35.09426,162.52393 -0.777105,-0.8599 0.859896,0.7771 c 0.472943,0.42741 0.859896,0.81437 0.859896,0.8599 0,0.20441 -0.218316,0.0245 -0.942687,-0.7771 z m -8.086897,-2.51355 c -0.329107,-0.41964 -0.319749,-0.429 0.0999,-0.0999 0.44073,0.34564 0.580888,0.56291 0.363125,0.56291 -0.05494,0 -0.2633,-0.20835 -0.463021,-0.46302 z m 6.085417,-5.82083 c -0.329108,-0.41964 -0.319749,-0.429 0.0999,-0.0999 0.44073,0.34565 0.580887,0.56292 0.363125,0.56292 -0.05494,0 -0.263301,-0.20836 -0.463021,-0.46302 z m -8.410165,-2.01924 -0.638707,-0.82503 0.756968,0.71959 c 0.416332,0.39577 0.703749,0.76703 0.638706,0.82502 -0.06504,0.058 -0.405677,-0.26582 -0.756967,-0.71958 z M -126.44938,139.8359 c 0,-0.3638 0.0601,-0.51263 0.13345,-0.33072 0.0734,0.1819 0.0734,0.47955 0,0.66145 -0.0734,0.1819 -0.13345,0.0331 -0.13345,-0.33073 z m 102.08739,-17.82697 c 0,-0.055 0.208359,-0.2633 0.463021,-0.46303 0.419645,-0.3291 0.429003,-0.31974 0.0999,0.0999 -0.345644,0.44073 -0.562917,0.58089 -0.562917,0.36313 z m -90.15619,-11.93865 c 0.003,-0.58208 0.0571,-0.78905 0.1204,-0.45994 0.0633,0.32912 0.0609,0.80537 -0.005,1.05834 -0.0662,0.25296 -0.118,-0.0163 -0.11506,-0.5984 z m -5.09381,-4.7625 c 0.34177,-0.3638 0.68094,-0.66146 0.7537,-0.66146 0.0728,0 -0.14734,0.29766 -0.48912,0.66146 -0.34177,0.3638 -0.68094,0.66146 -0.7537,0.66146 -0.0728,0 0.14735,-0.29766 0.48912,-0.66146 z m 10.29872,-0.0661 -0.64143,-0.7276 0.79375,0.66146 c 0.43656,0.3638 0.84336,0.69122 0.90399,0.7276 0.0606,0.0364 -0.008,0.0661 -0.15231,0.0661 -0.14441,0 -0.55121,-0.32742 -0.904,-0.72761 z m -5.05666,-1.5698 c 0.19099,-0.0764 0.4192,-0.067 0.50712,0.0209 0.0879,0.0879 -0.0684,0.15045 -0.34727,0.13896 -0.30822,-0.0127 -0.37092,-0.0754 -0.15985,-0.15985 z m -5.52667,-9.013529 -0.64143,-0.727605 0.7276,0.641432 c 0.40018,0.35279 0.72761,0.680212 0.72761,0.727605 0,0.207507 -0.21426,0.03862 -0.81378,-0.641432 z m 10.86794,0.06615 c 0.34178,-0.363802 0.68094,-0.661458 0.7537,-0.661458 0.0728,0 -0.14734,0.297656 -0.48911,0.661458 -0.34178,0.363802 -0.68094,0.661459 -0.7537,0.661459 -0.0728,0 0.14734,-0.297657 0.48911,-0.661459 z m -5.48952,-4.7625 c 0.003,-0.582083 0.0571,-0.789054 0.1204,-0.459936 0.0633,0.329119 0.0609,0.805369 -0.005,1.058334 -0.0662,0.252965 -0.118,-0.01631 -0.11506,-0.598398 z" id="path169"/>
        <a id="a270">
          <path style="fill:#49596b;stroke-width:0.264583" d="m -94.05066,169.07917 c -1.347973,-0.48042 -1.357133,-0.48696 -18.28529,-13.05482 -12.37275,-9.18583 -14.65069,-10.97918 -15.21054,-11.97478 -0.62638,-1.1139 -0.66278,-1.41592 -0.74708,-6.19804 l -0.0886,-5.02708 0.77448,-1.20488 c 0.69317,-1.07838 4.16026,-3.44233 33.026241,-22.51816 17.738468,-11.722317 32.668479,-21.529733 33.177802,-21.794264 1.486218,-0.771907 4.811684,-0.839718 6.614584,-0.13488 0.800364,0.3129 8.539427,5.295301 17.197916,11.072004 14.373728,9.58975 15.798798,10.60558 16.387713,11.68172 l 0.645006,1.17862 -0.313391,4.7745 c -0.265512,4.04512 -0.404468,4.95161 -0.909587,5.93382 -0.543637,1.05711 -3.44206,3.17331 -32.875366,24.00293 -19.465565,13.77557 -32.744251,23.00434 -33.450778,23.2485 -1.444914,0.49932 -4.561835,0.50709 -5.9431,0.0148 z m 5.296297,-1.82409 c 1.429818,-0.50447 64.678991,-45.24639 65.233505,-46.14562 0.301315,-0.48863 0.504695,-1.63885 0.6321,-3.57487 l 0.187846,-2.85444 -2.896762,2.06069 c -17.046471,12.12647 -61.970351,43.41327 -62.732089,43.68917 -1.325782,0.48017 -3.626117,0.51931 -5.112361,0.087 -0.888968,-0.25859 -5.215062,-3.29508 -16.139586,-11.32839 -8.20879,-6.03631 -15.39073,-11.34546 -15.95987,-11.79812 l -1.03481,-0.82302 0.17946,2.95467 c 0.0987,1.62506 0.31679,3.25609 0.48466,3.62451 0.33297,0.73081 29.928731,22.85299 31.940979,23.87519 1.369359,0.69562 3.621064,0.79629 5.216928,0.23324 z m 0.125288,-7.61727 c 1.078767,-0.36756 64.347592,-44.63645 65.391564,-45.75417 0.851562,-0.91171 0.947918,-2.03584 0.272508,-3.17921 -0.55608,-0.94137 -30.686137,-21.038572 -32.567613,-21.72309 -1.473644,-0.536142 -3.268117,-0.58072 -4.548124,-0.112984 -1.428131,0.521864 -64.29361,42.134254 -65.41823,43.302134 -1.09161,1.13359 -1.27346,2.12068 -0.62258,3.37934 0.42534,0.82253 31.159368,23.55214 32.510667,24.04355 1.119529,0.40712 3.845928,0.43144 4.981808,0.0444 z m -9.71263,-19.42188 c -8.569955,-6.1939 -15.694855,-11.37312 -15.833095,-11.50937 -0.1587,-0.15642 -0.15505,-0.34405 0.01,-0.50901 0.30685,-0.30685 31.67646,22.26107 31.812403,22.88647 0.04705,0.21645 -0.02537,0.39355 -0.160965,0.39355 -0.13558,0 -7.258296,-5.06774 -15.828253,-11.26164 z m -7.513665,6.53193 c -2.8355,-0.92842 -3.9551,-2.93627 -2.59877,-4.66055 1.28245,-1.63038 4.52403,-2.21891 6.72232,-1.2205 2.77176,1.25887 2.932228,3.85067 0.329,5.31377 -1.10856,0.62304 -3.39324,0.91412 -4.45255,0.56728 z m 55.951082,-39.46969 c -8.434705,-5.68668 -15.514421,-10.443264 -15.732702,-10.570195 -0.303366,-0.176406 -0.323935,-0.304488 -0.0873,-0.543608 0.237501,-0.239993 3.959233,2.143196 15.98557,10.236263 8.621794,5.80199 15.664931,10.66511 15.651411,10.80692 -0.01352,0.14181 -0.12731,0.29208 -0.252868,0.33393 -0.125558,0.0418 -7.129409,-4.57664 -15.564114,-10.26331 z m 4.425426,-3.71551 c -3.590367,-2.43388 -4.193455,-3.18567 -2.693366,-3.35745 0.938379,-0.10746 7.538363,4.35994 7.538363,5.10257 0,1.15393 -1.212887,0.71706 -4.844997,-1.74512 z m 5.044011,63.9222 c 0.0029,-0.58208 0.05712,-0.78905 0.120407,-0.45993 0.06329,0.32912 0.06088,0.80537 -0.0053,1.05833 -0.06622,0.25297 -0.118004,-0.0163 -0.115067,-0.5984 z m -5.358389,-4.7625 c 0.341776,-0.3638 0.740471,-0.66146 0.885992,-0.66146 0.145521,0 -0.01505,0.29766 -0.356825,0.66146 -0.341776,0.36381 -0.740471,0.66146 -0.885992,0.66146 -0.145521,0 0.01505,-0.29765 0.356825,-0.66146 z m 10.563307,-0.0661 -0.641432,-0.72761 0.727604,0.64144 c 0.680056,0.59951 0.84894,0.81377 0.641432,0.81377 -0.04739,0 -0.374814,-0.32742 -0.727604,-0.7276 z m -7.064814,-1.03477 c -1.760572,-0.86777 -2.936753,-3.13375 -2.564419,-4.9405 0.567455,-2.75355 3.619117,-4.54633 6.126306,-3.59905 0.91245,0.34475 2.119371,1.45813 2.620534,2.41743 0.536122,1.02622 0.463997,2.9652 -0.155467,4.17945 -1.042043,2.04257 -3.933428,2.97456 -6.026954,1.94267 z m 3.59225,-0.72603 c 1.364187,-0.70979 1.98596,-1.63873 2.096321,-3.13196 0.226221,-3.06092 -2.548938,-4.99632 -5.273197,-3.67753 -1.387866,0.67186 -2.149977,1.86299 -2.149977,3.36029 0,2.76224 2.961537,4.67987 5.326853,3.4492 z m -12.180887,-3.51956 c 0.329118,-0.0633 0.805368,-0.0609 1.058333,0.005 0.252966,0.0662 -0.01632,0.11801 -0.598397,0.11507 -0.582084,-0.003 -0.789054,-0.0571 -0.459936,-0.12041 z m 20.108333,0 c 0.329118,-0.0633 0.805368,-0.0609 1.058334,0.005 0.252965,0.0662 -0.01633,0.11801 -0.598398,0.11507 -0.582083,-0.003 -0.789054,-0.0571 -0.459936,-0.12041 z m -4.964022,-4.48313 c 0,-0.14552 0.297656,-0.54422 0.661458,-0.88599 0.363802,-0.34178 0.661458,-0.50235 0.661458,-0.35683 0,0.14552 -0.297656,0.54422 -0.661458,0.88599 -0.363802,0.34178 -0.661458,0.50235 -0.661458,0.35683 z m -10.074193,-0.81985 -0.641432,-0.7276 0.727604,0.64143 c 0.680056,0.59952 0.848939,0.81378 0.641432,0.81378 -0.04739,0 -0.374814,-0.32742 -0.727604,-0.72761 z m 5.378415,-4.69635 c 0.0029,-0.58208 0.05712,-0.78905 0.120407,-0.45994 0.06329,0.32912 0.06088,0.80537 -0.0053,1.05834 -0.06622,0.25296 -0.118004,-0.0163 -0.115067,-0.5984 z M -114.2536,110.07028 c 0.003,-0.58208 0.0571,-0.78905 0.12041,-0.45994 0.0633,0.32912 0.0609,0.80537 -0.005,1.05834 -0.0662,0.25296 -0.11801,-0.0163 -0.11507,-0.5984 z m -5.35839,-5.02708 c 0.34177,-0.36381 0.68094,-0.66146 0.7537,-0.66146 0.0728,0 -0.14734,0.29765 -0.48912,0.66146 -0.34177,0.3638 -0.68094,0.66145 -0.7537,0.66145 -0.0728,0 0.14735,-0.29765 0.48912,-0.66145 z m 10.29872,-0.0661 -0.64143,-0.7276 0.72761,0.64143 c 0.68005,0.59952 0.84893,0.81377 0.64143,0.81377 -0.0474,0 -0.37482,-0.32742 -0.72761,-0.7276 z m -6.4212,-0.71666 c -1.96379,-0.70019 -3.08377,-2.24638 -3.08377,-4.2573 0,-2.564926 1.61653,-4.355999 4.11879,-4.563507 1.74081,-0.144362 2.76304,0.23961 3.80879,1.430661 1.66295,1.893993 1.60356,4.538406 -0.14022,6.243406 -1.45579,1.42341 -2.92382,1.78131 -4.70359,1.14674 z m 3.51446,-1.1721 c 1.65413,-1.17701 2.15794,-3.2176 1.23504,-5.002283 -1.28464,-2.484229 -4.94286,-2.567705 -6.53737,-0.149175 -0.88186,1.337593 -0.53613,3.841078 0.66852,4.840848 1.28395,1.06558 3.37576,1.20579 4.63381,0.31061 z m -12.48212,-3.127015 c 0.32911,-0.06329 0.80536,-0.06088 1.05833,0.0053 0.25296,0.06621 -0.0163,0.117995 -0.5984,0.115065 -0.58208,-0.003 -0.78905,-0.0571 -0.45993,-0.120404 z m 20.10833,0 c 0.32912,-0.06329 0.80537,-0.06088 1.05833,0.0053 0.25297,0.06621 -0.0163,0.117995 -0.59839,0.115065 -0.58209,-0.003 -0.78906,-0.0571 -0.45994,-0.120404 z m -15.03822,-5.302974 -0.64143,-0.727605 0.72761,0.641432 c 0.40018,0.35279 0.7276,0.680212 0.7276,0.727605 0,0.207507 -0.21426,0.03862 -0.81378,-0.641432 z m 10.33878,0.06615 c 0.34177,-0.363802 0.68094,-0.661458 0.7537,-0.661458 0.0728,0 -0.14734,0.297656 -0.48912,0.661458 -0.34177,0.363802 -0.68094,0.661459 -0.7537,0.661459 -0.0728,0 0.14735,-0.297657 0.48912,-0.661459 z m -4.96036,-4.7625 c 0.003,-0.582083 0.0571,-0.789054 0.12041,-0.459936 0.0633,0.329119 0.0609,0.805369 -0.005,1.058334 -0.0662,0.252965 -0.11801,-0.01631 -0.11507,-0.598398 z" id="path167"/>
        </a>
      </g>
    </g>
    <g id="g236" transform="translate(137.42622,36.327621)">
      <path style="fill:#f8f8f9;stroke-width:0.264583" d="m -92.34419,47.642764 c 0,-2.504723 0.0024,-2.513542 0.661458,-2.513542 0.659138,0 0.661459,0.0088 0.661459,2.513542 0,2.504723 -0.0024,2.513542 -0.661459,2.513542 -0.659138,0 -0.661458,-0.0088 -0.661458,-2.513542 z m -21.43125,1.619896 c 0,-0.05494 0.20836,-0.263301 0.46302,-0.463021 0.41964,-0.329108 0.429,-0.319749 0.0999,0.0999 -0.34565,0.44073 -0.56292,0.580887 -0.56292,0.363125 z m -3.04271,-1.223021 c -0.0899,-0.145521 -0.0374,-0.264583 0.11668,-0.264583 0.15411,0 0.2802,0.119062 0.2802,0.264583 0,0.145521 -0.0525,0.264583 -0.11668,0.264583 -0.0642,0 -0.19026,-0.119062 -0.2802,-0.264583 z m 4.63021,0 c 0,-0.145521 0.11906,-0.264583 0.26458,-0.264583 0.14552,0 0.26459,0.119062 0.26459,0.264583 0,0.145521 -0.11907,0.264583 -0.26459,0.264583 -0.14552,0 -0.26458,-0.119062 -0.26458,-0.264583 z m -1.35667,-0.992188 c -0.3291,-0.419645 -0.31974,-0.429003 0.0999,-0.0999 0.25466,0.199721 0.46302,0.408081 0.46302,0.463021 0,0.217763 -0.21727,0.0776 -0.56292,-0.363125 z m 19.174376,-6.746875 c -5.240724,-6.293971 -8.864616,-13.543618 -10.461876,-20.929134 -0.47742,-2.207493 -0.58221,-3.555323 -0.58934,-7.57972 -0.008,-4.3026009 0.0652,-5.1668782 0.60171,-7.1437497 0.67062,-2.470912 2.20064,-5.9362313 3.40802,-7.7187689 1.29218,-1.9077438 1.31088,-1.9727043 0.40228,-1.3974154 -4.18453,2.6494581 -7.7501,7.1251921 -9.26031,11.6241486 -0.64883,1.9328924 -0.71194,2.4763465 -0.70741,6.0909944 0.004,3.230409 0.11335,4.381407 0.58747,6.186887 1.58058,6.018884 4.34695,10.873216 9.55358,16.764259 l 1.930505,2.18427 -2.501255,-2.544244 c -5.57556,-5.671394 -8.93066,-11.186636 -10.70633,-17.599501 -0.63831,-2.305267 -0.72311,-3.07436 -0.72543,-6.579171 -0.003,-3.7750462 0.0376,-4.0818888 0.82269,-6.2868205 2.01416,-5.65711444 6.09536,-10.12444 11.99882,-13.1340595 4.881365,-2.488547 9.155058,-3.480528 14.999119,-3.481493 8.855212,-0.0016 16.232941,2.9322762 21.777968,8.6599762 1.395187,1.441151 1.552305,1.65588949 0.529166,0.7232359 -2.482702,-2.2631347 -5.501251,-4.1254019 -8.784592,-5.4195742 l -1.386851,-0.546645 1.490946,1.5631027 c 5.143857,5.39279573 7.512203,13.096748 6.595845,21.4555174 -0.398343,3.633589 -0.440243,3.74895 -1.695728,4.668843 -1.571368,1.15134 -3.218775,3.292636 -3.89941,5.068446 -0.716193,1.86859 -0.976752,5.142592 -0.545553,6.855044 l 0.308349,1.224561 -1.708809,2.554099 c -0.939845,1.404755 -2.573097,3.595897 -3.629451,4.869204 l -1.920642,2.315104 h -1.568485 c -1.389086,0 -1.546963,-0.05296 -1.38032,-0.463021 0.814575,-2.00447 2.848795,-8.699992 3.396271,-11.178645 3.06982,-13.898356 2.520682,-27.9777643 -1.409319,-36.1335138 -1.356898,-2.8159075 -2.952504,-4.3477365 -4.528754,-4.3477365 -1.491742,0 -2.638134,0.7693395 -3.836385,2.5745784 -5.77959,8.707321 -5.789228,29.6497959 -0.02125,46.1749009 l 1.177476,3.373437 h -3.137435 -3.137434 z m -38.339556,-20.637499 -0.77711,-0.859896 0.8599,0.777105 c 0.47294,0.427408 0.85989,0.814361 0.85989,0.859896 0,0.204406 -0.21831,0.02445 -0.94268,-0.777105 z M -45.314503,6.5894107 c 0.181902,-0.073398 0.479558,-0.073398 0.661459,0 0.181901,0.073398 0.03307,0.1334532 -0.330729,0.1334532 -0.363802,0 -0.512631,-0.060055 -0.33073,-0.1334532 z m 2.645834,0 c 0.181901,-0.073398 0.479557,-0.073398 0.661458,0 0.181901,0.073398 0.03307,0.1334532 -0.330729,0.1334532 -0.363802,0 -0.51263,-0.060055 -0.330729,-0.1334532 z M -132.82544,-3.6864027 c 0.49366,-0.5093229 0.95709,-0.9260416 1.02985,-0.9260416 0.0728,0 -0.27161,0.4167187 -0.76527,0.9260416 -0.49365,0.509323 -0.95708,0.9260417 -1.02984,0.9260417 -0.0728,0 0.2716,-0.4167187 0.76526,-0.9260417 z" id="path264"/>
      <path style="fill:#f4f8fa;stroke-width:0.264583" d="m -89.896794,57.104531 c 0.836745,-0.05251 2.205963,-0.05251 3.042708,0 0.836745,0.05251 0.152136,0.09547 -1.521354,0.09547 -1.67349,0 -2.358099,-0.04296 -1.521354,-0.09547 z m 6.614583,0 c 0.836745,-0.05251 2.205964,-0.05251 3.042709,0 0.836744,0.05251 0.152135,0.09547 -1.521355,0.09547 -1.673489,0 -2.358099,-0.04296 -1.521354,-0.09547 z m -9.213535,-7.03531 c -0.07422,-0.193419 -0.09497,-1.413809 -0.0461,-2.711979 l 0.08884,-2.360311 0.05441,2.562114 0.05441,2.562113 0.727604,0.110223 0.727604,0.110223 -0.735906,0.03964 c -0.404752,0.0218 -0.796637,-0.118607 -0.870858,-0.312025 z m 30.049473,-9.643552 c -3.374097,-0.901179 -5.801979,-2.968749 -7.565618,-6.442834 -0.841941,-1.658491 -1.008113,-2.274152 -1.10999,-4.112504 -0.343501,-6.19824 3.901868,-11.274271 10.130816,-12.113038 1.30026,-0.17509 1.335709,-0.204562 2.069976,-1.721045 2.748309,-5.676096 8.626234,-9.3079548 15.127941,-9.3472666 2.834235,-0.017145 4.625194,0.3667257 7.204196,1.5440977 4.722151,2.1557669 8.139401,6.2593829 9.454354,11.3532949 0.51866,2.009203 0.519139,6.116561 0.0011,8.314759 -0.530262,2.249492 -2.206937,5.411729 -3.842207,7.246463 -1.781038,1.998279 -4.66979,3.88261 -7.399708,4.826823 l -2.242603,0.775663 -10.054167,0.06746 c -8.848257,0.05937 -10.260441,0.01236 -11.773958,-0.391874 z m -39.192087,-1.315718 c -0.3291,-0.419645 -0.31975,-0.429003 0.0999,-0.0999 0.25466,0.199721 0.46302,0.408081 0.46302,0.463021 0,0.217763 -0.21727,0.0776 -0.56292,-0.363125 z m 3.245589,-0.339531 c -0.343546,-0.2862 -0.510826,-0.520364 -0.371737,-0.520364 0.139088,0 0.468386,0.238125 0.731776,0.529166 0.605071,0.668594 0.448485,0.664766 -0.360039,-0.0088 z m -5.891419,-2.306302 c -0.32911,-0.419645 -0.31975,-0.429003 0.0999,-0.0999 0.25466,0.199721 0.46302,0.40808 0.46302,0.463021 0,0.217763 -0.21728,0.0776 -0.56292,-0.363125 z m 3.175,-0.529166 c -0.32911,-0.419646 -0.31975,-0.429004 0.0999,-0.0999 0.25466,0.199721 0.46302,0.408081 0.46302,0.463021 0,0.217763 -0.21728,0.0776 -0.56292,-0.363124 z m -23.45468,-11.845881 c -4.63306,-1.006197 -9.04791,-4.525618 -11.11142,-8.857765 -1.29804,-2.725143 -1.64807,-4.307248 -1.64807,-7.4493123 0,-4.6403657 1.46472,-8.10267676 4.86355,-11.4964528 1.6445,-1.642065 2.62449,-2.3730902 4.18135,-3.1190988 1.94954,-0.934175 4.85732,-1.7333331 6.34214,-1.7430433 0.60358,-0.00394 0.81489,-0.2444062 1.4985,-1.7052398 2.92074,-6.241477 8.42134,-10.92104 15.31516,-13.029172 2.12488,-0.649788 2.70736,-0.711728 6.693053,-0.711728 4.007017,0 4.561229,0.0597 6.746875,0.726795 4.791126,1.462327 9.18508,4.381989 12.187905,8.098527 0.830786,1.028246 1.457137,1.922921 1.39189,1.988166 -0.06525,0.06525 -0.825671,0.0028 -1.689835,-0.138666 -2.417416,-0.395864 -8.731943,-0.314236 -11.392281,0.147269 -8.74513,1.517071 -16.161887,6.031394 -20.457467,12.45174675 -4.2105,6.29319665 -4.83424,13.61175125 -1.89749,22.26406325 l 1.0103,2.976562 -5.18693,-0.02103 c -3.31241,-0.01343 -5.78694,-0.151344 -6.84723,-0.381617 z m 19.2551,-25.1296403 c 0.34177,-0.3638021 0.68094,-0.6614584 0.7537,-0.6614584 0.0728,0 -0.14734,0.2976563 -0.48912,0.6614584 -0.34178,0.36380205 -0.68094,0.6614583 -0.7537,0.6614583 -0.0728,0 0.14734,-0.29765625 0.48912,-0.6614583 z m 42.206685,-1.4489695 c -0.260284,-0.28761 -0.606158,-0.4471141 -0.768612,-0.3544543 -0.162452,0.09266 -0.207103,0.071041 -0.09923,-0.048043 0.107878,-0.119081 0.05353,-0.4060613 -0.120772,-0.6377305 -0.174305,-0.2316718 0.124386,-0.010901 0.663752,0.4905798 0.539369,0.5014886 0.980671,0.947973 0.980671,0.9921875 0,0.1902249 -0.213628,0.046069 -0.655812,-0.4425394 z m -23.421272,-5.3978016 c 0,-0.054941 0.20836,-0.2633001 0.463021,-0.4630208 0.419645,-0.3291073 0.429004,-0.319749 0.0999,0.099896 -0.345643,0.4407297 -0.562917,0.5808875 -0.562917,0.3631248 z m 0.744141,-3.5204266 c 0.190995,-0.07643 0.419198,-0.06703 0.507119,0.02088 0.08792,0.08792 -0.06835,0.150453 -0.347266,0.138965 -0.308226,-0.0127 -0.370919,-0.07539 -0.159853,-0.159851 z m 1.058333,0 c 0.190995,-0.07643 0.419198,-0.06703 0.507119,0.02088 0.08792,0.08792 -0.06835,0.150453 -0.347265,0.138965 -0.308227,-0.0127 -0.37092,-0.07539 -0.159854,-0.159851 z m 38.94336,-14.503636 c 0.341775,-0.363802 0.680939,-0.661458 0.7537,-0.661458 0.07276,0 -0.147341,0.297656 -0.489117,0.661458 -0.341776,0.363802 -0.68094,0.661459 -0.7537,0.661459 -0.07276,0 0.147341,-0.297657 0.489117,-0.661459 z m -10.297861,-3.461632 c 0.0127,-0.308224 0.07539,-0.370919 0.15985,-0.159852 0.07643,0.190996 0.06703,0.419199 -0.02087,0.507118 -0.08792,0.08792 -0.150453,-0.06835 -0.138965,-0.347266 z m 12.211327,-0.903993 c 0,-0.509323 0.05445,-0.717682 0.121002,-0.46302 0.06655,0.254661 0.06655,0.67138 0,0.926041 -0.06655,0.254662 -0.121002,0.0463 -0.121002,-0.463021 z m -12.211327,-0.94809 c 0.0127,-0.308224 0.07539,-0.370919 0.15985,-0.159852 0.07643,0.190996 0.06703,0.419199 -0.02087,0.507118 -0.08792,0.08792 -0.150453,-0.06835 -0.138965,-0.347266 z m 10.277834,-3.48368 -0.641432,-0.727605 0.727605,0.641433 c 0.400182,0.352789 0.727604,0.680211 0.727604,0.727605 0,0.207505 -0.21426,0.03862 -0.813777,-0.641433 z" id="path262"/>
      <path style="fill:#d2e2f1;stroke-width:0.264583" d="m -51.598357,66.72516 c 0,-0.05494 0.20836,-0.263301 0.463021,-0.463021 0.419645,-0.329108 0.429004,-0.319749 0.0999,0.0999 -0.345643,0.44073 -0.562917,0.580887 -0.562917,0.363125 z m 0.230833,-2.744375 c -0.329107,-0.419645 -0.319749,-0.429004 0.0999,-0.0999 0.44073,0.345643 0.580888,0.562917 0.363125,0.562917 -0.05494,0 -0.2633,-0.20836 -0.463021,-0.463021 z M -90.547883,42.816391 c 0.915206,-0.05181 2.343956,-0.05139 3.175,0.0011 0.83104,0.05234 0.08223,0.09473 -1.664015,0.09421 -1.74625,-5.29e-4 -2.426195,-0.04334 -1.510985,-0.09516 z m 10.043797,0.0048 c 0.472943,-0.05869 1.246849,-0.05869 1.719792,0 0.472943,0.05869 0.08599,0.106715 -0.859896,0.106715 -0.945885,0 -1.332839,-0.04802 -0.859896,-0.106715 z m -13.990521,-0.800785 c -0.329107,-0.419645 -0.319749,-0.429003 0.0999,-0.0999 0.254662,0.199721 0.463021,0.40808 0.463021,0.463021 0,0.217763 -0.217273,0.0776 -0.562917,-0.363125 z m -1.966201,-1.51294 c -0.282474,-0.213651 -0.379341,-0.392245 -0.215257,-0.396875 0.164082,-0.0046 0.446551,0.17018 0.627708,0.388461 0.418251,0.503962 0.247333,0.50745 -0.412451,0.0084 z m -2.002549,-1.66206 c -0.329107,-0.419645 -0.319749,-0.429003 0.0999,-0.0999 0.254662,0.199721 0.463021,0.40808 0.463021,0.463021 0,0.217763 -0.217273,0.07761 -0.562917,-0.363125 z m -4.478413,-1.058333 -0.9118,-0.992188 0.99219,0.911799 c 0.92351,0.848681 1.11384,1.072576 0.9118,1.072576 -0.0442,0 -0.4907,-0.446484 -0.99219,-0.992187 z m 3.175004,-0.529167 -0.911794,-0.992187 0.992183,0.911799 c 0.923506,0.84868 1.11384,1.072576 0.911799,1.072576 -0.04421,0 -0.490699,-0.446485 -0.992188,-0.992188 z M -75.919134,20.10405 c 0.0127,-0.308227 0.07539,-0.37092 0.15985,-0.159854 0.07643,0.190995 0.06703,0.419198 -0.02088,0.507119 -0.08792,0.08792 -0.150453,-0.06835 -0.138965,-0.347265 z m -15.589531,-2.756078 c 0,-0.363802 0.06005,-0.51263 0.133453,-0.330729 0.0734,0.181901 0.0734,0.479557 0,0.661459 -0.0734,0.181901 -0.133453,0.03307 -0.133453,-0.33073 z m 15.91251,-2.645833 c 0,-0.800365 0.0496,-1.127786 0.110223,-0.727604 0.06062,0.400182 0.06062,1.055026 0,1.455208 -0.06062,0.400182 -0.110223,0.07276 -0.110223,-0.727604 z m -35.512565,0.639411 c 0.0127,-0.308227 0.0754,-0.37092 0.15985,-0.159854 0.0764,0.190995 0.067,0.419198 -0.0209,0.507119 -0.0879,0.08792 -0.15046,-0.06835 -0.13897,-0.347265 z m 35.508953,-3.946703 c 0.0021,-0.727604 0.05337,-0.993857 0.114187,-0.591674 0.06082,0.402182 0.05919,0.997495 -0.0036,1.322917 -0.0628,0.325421 -0.112559,-0.0036 -0.110574,-0.731243 z m -30.196393,-0.132291 c 0,-0.363802 0.0601,-0.512631 0.13345,-0.330729 0.0734,0.181901 0.0734,0.479557 0,0.661458 -0.0734,0.181901 -0.13345,0.03307 -0.13345,-0.330729 z m 50.799995,-1.058334 c 0,-0.3638017 0.06005,-0.5126299 0.133453,-0.3307288 0.0734,0.1819008 0.0734,0.4795568 0,0.6614578 -0.0734,0.181902 -0.133453,0.03307 -0.133453,-0.330729 z m -36.5125,-1.058333 c 0,-0.3638021 0.06005,-0.5126302 0.133453,-0.3307292 0.0734,0.1819011 0.0734,0.4795573 0,0.6614584 -0.0734,0.181901 -0.133453,0.033073 -0.133453,-0.3307292 z m 30.616141,-8.9296875 c -0.329107,-0.41964504 -0.319749,-0.42900335 0.0999,-0.0998961 0.44073,0.34564373 0.580888,0.56291691 0.363125,0.56291691 -0.05494,0 -0.2633,-0.20835937 -0.463021,-0.46302083 z m -47.723546,-4.8286458 c 0.2634,-0.2910417 0.53843,-0.5291667 0.61119,-0.5291667 0.0728,0 -0.0832,0.238125 -0.3466,0.5291667 -0.26339,0.2910416 -0.53842,0.5291666 -0.61118,0.5291666 -0.0728,0 0.0832,-0.238125 0.34659,-0.5291666 z m 36.895137,-2.0505209 -0.911799,-0.9921875 0.992188,0.9117992 c 0.545703,0.5014886 0.992187,0.947973 0.992187,0.9921875 0,0.2020411 -0.223895,0.011721 -1.072576,-0.9117992 z m -15.133153,-4.7392908 c 0.181901,-0.0734 0.479557,-0.0734 0.661459,0 0.181901,0.0734 0.03307,0.133453 -0.33073,0.133453 -0.363802,0 -0.51263,-0.06006 -0.330729,-0.133453 z m 2.910417,0 c 0.181901,-0.0734 0.479557,-0.0734 0.661458,0 0.181901,0.0734 0.03307,0.133453 -0.330729,0.133453 -0.363802,0 -0.51263,-0.06006 -0.330729,-0.133453 z M -122.8309,-22.622624 c -0.24123,-0.420306 -0.79193,-0.979069 -1.22378,-1.241695 l -0.78519,-0.477503 0.77753,-0.446242 c 0.42765,-0.245434 0.97578,-0.79166 1.21808,-1.213836 l 0.44053,-0.767594 0.43199,0.805478 c 0.23759,0.443012 0.79444,0.999869 1.23746,1.237459 l 0.80547,0.431983 -0.75425,0.432881 c -0.41484,0.238085 -0.96913,0.786217 -1.23175,1.218072 l -0.47751,0.785189 z m 71.170112,-1.832436 c -4.948372,-1.489976 -5.821714,-8.399801 -1.389925,-10.997003 3.067622,-1.797746 7.180707,-0.535757 8.626234,2.646728 0.633278,1.394224 0.633278,3.66239 0,5.056615 -1.18968,2.619209 -4.488955,4.120899 -7.236309,3.29366 z" id="path260"/>
      <path style="fill:#b2c7ec;stroke-width:0.264583" d="m -75.919134,19.3103 c 0.0127,-0.308227 0.07539,-0.37092 0.15985,-0.159854 0.07643,0.190995 0.06703,0.419198 -0.02088,0.507119 -0.08792,0.08792 -0.150453,-0.06835 -0.138965,-0.347265 z m -15.589531,-3.020661 c 0,-0.363802 0.06005,-0.51263 0.133453,-0.330729 0.0734,0.181901 0.0734,0.479557 0,0.661458 -0.0734,0.181901 -0.133453,0.03307 -0.133453,-0.330729 z m -14.267895,-3.704167 c 0,-0.509323 0.0545,-0.717682 0.12101,-0.46302 0.0665,0.254661 0.0665,0.67138 0,0.926041 -0.0666,0.254662 -0.12101,0.0463 -0.12101,-0.463021 z m 30.122009,0.374828 c 0.0127,-0.308227 0.07539,-0.37092 0.159851,-0.159854 0.07643,0.190995 0.06703,0.419198 -0.02088,0.507119 -0.08792,0.08792 -0.150453,-0.06835 -0.138965,-0.347265 z m -30.141609,-2.756078 c 0,-0.3638017 0.0601,-0.5126299 0.13345,-0.3307288 0.0734,0.1819008 0.0734,0.4795568 0,0.6614578 -0.0734,0.181902 -0.13345,0.03307 -0.13345,-0.330729 z m 14.266609,-0.154339 c 0.0127,-0.3082264 0.07539,-0.3709194 0.159851,-0.1598534 0.07643,0.1909944 0.06703,0.4191984 -0.02088,0.5071194 -0.08792,0.08792 -0.150453,-0.06835 -0.138965,-0.347266 z m 29.843277,-10.6274315 c -0.335891,-0.4282969 -0.323439,-0.4339114 0.166042,-0.0748691 0.291042,0.21348436 0.578776,0.42184373 0.639411,0.46302084 0.06063,0.0411771 -0.01408,0.0748691 -0.166042,0.0748691 -0.151955,0 -0.43969,-0.20835937 -0.639411,-0.46302084 z m -1.322916,-1.3229167 c -0.329108,-0.419645 -0.319749,-0.4290033 0.0999,-0.099896 0.44073,0.3456437 0.580887,0.5629169 0.363125,0.5629169 -0.05494,0 -0.263301,-0.2083594 -0.463021,-0.4630209 z" id="path258"/>
      <path style="fill:#92b6f3;stroke-width:0.264583" d="m -77.395232,42.218806 c 0.26339,-0.291042 0.538422,-0.529167 0.611183,-0.529167 0.07276,0 -0.08321,0.238125 -0.346599,0.529167 -0.26339,0.291041 -0.538422,0.529166 -0.611183,0.529166 -0.07276,0 0.08321,-0.238125 0.346599,-0.529166 z m -20.133471,-2.976563 -0.504029,-0.595312 0.595313,0.504028 c 0.559445,0.473663 0.715761,0.686597 0.504028,0.686597 -0.05021,0 -0.318098,-0.267891 -0.595312,-0.595313 z m -3.968747,-3.96875 -0.50403,-0.595312 0.59531,0.504028 c 0.55945,0.473663 0.71576,0.686597 0.50403,0.686597 -0.0502,0 -0.3181,-0.267891 -0.59531,-0.595313 z m 10.761649,-10.671527 c 0.0127,-0.308226 0.07539,-0.370919 0.159851,-0.159853 0.07643,0.190995 0.06703,0.419198 -0.02088,0.507119 -0.08792,0.08792 -0.150453,-0.06835 -0.138965,-0.347266 z M -91.000384,22.4853 c 0.0127,-0.308227 0.07539,-0.37092 0.15985,-0.159854 0.07643,0.190995 0.06703,0.419198 -0.02087,0.507119 -0.08792,0.08792 -0.150453,-0.06835 -0.138965,-0.347265 z m 14.816666,-0.79375 c 0.0127,-0.308227 0.07539,-0.37092 0.159851,-0.159854 0.07643,0.190995 0.06703,0.419198 -0.02088,0.507119 -0.08792,0.08792 -0.150452,-0.06835 -0.138964,-0.347265 z m -15.060364,-1.962328 c 0,-0.363802 0.06006,-0.51263 0.133454,-0.330729 0.0734,0.181901 0.0734,0.479557 0,0.661459 -0.0734,0.181901 -0.133454,0.03307 -0.133454,-0.33073 z m 15.345834,-1.322916 c 0,-0.363802 0.06005,-0.512631 0.133453,-0.330729 0.0734,0.181901 0.0734,0.479557 0,0.661458 -0.0734,0.181901 -0.133453,0.03307 -0.133453,-0.330729 z m 11.091614,-2.53559 c 0.0127,-0.308226 0.07539,-0.370919 0.15985,-0.159853 0.07643,0.190995 0.06703,0.419198 -0.02088,0.507119 -0.08792,0.08792 -0.150453,-0.06835 -0.138965,-0.347266 z m -26.645921,-2.756077 c 0,-1.527969 0.04373,-2.153047 0.09718,-1.389062 0.05345,0.763984 0.05345,2.01414 0,2.778125 -0.05344,0.763984 -0.09718,0.138906 -0.09718,-1.389063 z m -19.595065,-0.132292 c 0.002,-0.873125 0.0509,-1.198414 0.10976,-0.722865 0.0589,0.475549 0.0577,1.189924 -0.003,1.5875 -0.0604,0.397576 -0.10855,0.0085 -0.10707,-0.864635 z m 5.25146,0.926042 c 0,-0.363802 0.0601,-0.51263 0.13345,-0.330729 0.0734,0.181901 0.0734,0.479557 0,0.661458 -0.0734,0.181901 -0.13345,0.03307 -0.13345,-0.330729 z m 41.32004,-2.513542 c 0.0011,-1.018645 0.049,-1.4029422 0.106273,-0.853995 0.05727,0.548949 0.05631,1.382387 -0.0021,1.852083 -0.05845,0.469699 -0.105312,0.02056 -0.104137,-0.998088 z m -41.32004,-2.248958 c 0,-0.3638021 0.0601,-0.5126302 0.13345,-0.3307292 0.0734,0.1819011 0.0734,0.4795573 0,0.6614584 -0.0734,0.181901 -0.13345,0.033073 -0.13345,-0.3307292 z m 29.877026,-0.9480894 c 0.0127,-0.3082263 0.07539,-0.3709194 0.15985,-0.1598533 0.07643,0.1909948 0.06703,0.4191979 -0.02088,0.5071189 -0.08792,0.087918 -0.150453,-0.068352 -0.138965,-0.3472656 z M -91.264968,7.1394663 c 0.0127,-0.3082264 0.07539,-0.3709194 0.159851,-0.1598533 0.07643,0.1909947 0.06703,0.4191979 -0.02088,0.5071189 -0.08792,0.087918 -0.150452,-0.068352 -0.138964,-0.3472656 z m -13.790282,-8.1138898 c 1.09643,-1.1681857 1.33398,-1.3782384 1.33398,-1.1795681 0,0.042463 -0.56555,0.6080099 -1.25677,1.25677087 l -1.25677,1.17956806 z m 18.928768,-7.0776042 c 0.26339,-0.2910416 0.538422,-0.5291666 0.611183,-0.5291666 0.07276,0 -0.08321,0.238125 -0.346599,0.5291666 -0.26339,0.2910417 -0.538422,0.5291667 -0.611183,0.5291667 -0.07276,0 0.08321,-0.238125 0.346599,-0.5291667 z" id="path256"/>
      <path style="fill:#a5dcb5;stroke-width:0.264583" d="m -90.161377,66.424778 c -0.570336,-0.405712 -0.595313,-0.583806 -0.595313,-4.244933 v -3.821456 h 5.688542 5.688541 v 3.653597 c 0,2.73517 -0.09428,3.782703 -0.375041,4.167187 -0.342977,0.469683 -0.778412,0.520237 -5.093229,0.591336 -3.987075,0.0657 -4.810435,0.01212 -5.3135,-0.345731 z" id="path254"/>
      <path style="fill:#abb1b4;stroke-width:0.264583" d="m -78.214781,61.268806 c 0,-2.255573 0.04058,-3.178308 0.09018,-2.050521 0.0496,1.127786 0.0496,2.973255 0,4.101042 -0.0496,1.127786 -0.09018,0.205052 -0.09018,-2.050521 z m -6.63212,-5.820834 c 0,-1.091406 0.0467,-1.53789 0.103785,-0.992187 0.05708,0.545703 0.05708,1.438672 0,1.984375 -0.05708,0.545703 -0.103785,0.09922 -0.103785,-0.992188 z m 15.653753,-16.139583 c 0.26339,-0.291042 0.538421,-0.529167 0.611182,-0.529167 0.07276,0 -0.08321,0.238125 -0.346599,0.529167 -0.26339,0.291042 -0.538422,0.529167 -0.611182,0.529167 -0.07276,0 0.08321,-0.238125 0.346599,-0.529167 z m -32.155912,-3.108854 -1.44617,-1.521354 1.52135,1.44617 c 0.83675,0.795393 1.521357,1.480002 1.521357,1.521354 0,0.196387 -0.252997,-0.03278 -1.596537,-1.44617 z m 33.189107,0.926041 -0.504029,-0.595312 0.595313,0.504029 c 0.327422,0.277214 0.595312,0.545105 0.595312,0.595312 0,0.211733 -0.212934,0.05542 -0.686596,-0.504029 z M -115.31136,12.982347 c 0.005,-0.436562 0.0647,-0.583125 0.13177,-0.325694 0.0671,0.257432 0.0627,0.614619 -0.01,0.79375 -0.0725,0.179131 -0.12736,-0.03149 -0.12197,-0.468056 z m 2.14707,-1.5875 c 10e-4,-0.873125 0.0509,-1.198414 0.10977,-0.722865 0.0589,0.475549 0.0577,1.189924 -0.003,1.5875 -0.0604,0.397576 -0.10855,0.0085 -0.10707,-0.864635 z m -2.17776,-1.6095474 c 0.0127,-0.3082263 0.0754,-0.3709194 0.15985,-0.1598533 0.0764,0.1909948 0.067,0.4191977 -0.0209,0.5071187 -0.0879,0.08792 -0.15045,-0.06835 -0.13896,-0.3472654 z m 7.65203,-12.0992847 c 0,-0.045535 0.38695,-0.4324879 0.85989,-0.8598958 l 0.8599,-0.7771051 -0.77711,0.8598958 c -0.72437,0.8015447 -0.94268,0.9815116 -0.94268,0.7771051 z m 46.532913,-1.4385634 c -0.329107,-0.419645 -0.319749,-0.4290034 0.0999,-0.099896 0.254662,0.1997207 0.463021,0.4080801 0.463021,0.4630209 0,0.2177626 -0.217273,0.077605 -0.562917,-0.3631248 z m -1.852083,-1.8520833 c -0.329108,-0.4196451 -0.319749,-0.4290034 0.0999,-0.099896 0.254661,0.1997207 0.463021,0.4080801 0.463021,0.4630208 0,0.2177627 -0.217274,0.077605 -0.562917,-0.3631247 z m -24.886693,-5.8031352 c 0.190995,-0.07643 0.419198,-0.06703 0.507119,0.02088 0.08792,0.08792 -0.06835,0.150453 -0.347265,0.138965 -0.308227,-0.0127 -0.37092,-0.07539 -0.159854,-0.159851 z m 5.291667,0 c 0.190995,-0.07643 0.419198,-0.06703 0.507119,0.02088 0.08792,0.08792 -0.06835,0.150453 -0.347266,0.138965 -0.308226,-0.0127 -0.370919,-0.07539 -0.159853,-0.159851 z m -6.085417,-2.116668 c 0.190995,-0.07643 0.419198,-0.06703 0.507119,0.02089 0.08792,0.08792 -0.06835,0.150453 -0.347265,0.138964 -0.308227,-0.01269 -0.37092,-0.07539 -0.159854,-0.159852 z" id="path252"/>
      <path style="fill:#498afa;stroke-width:0.264583" d="m -91.021273,47.775056 v -2.645834 h 6.614583 6.614583 v 2.645834 2.645833 h -6.614583 -6.614583 z m -2.778125,-5.458188 c -0.436563,-0.37343 -1.791174,-1.530527 -3.01025,-2.571324 -4.511882,-3.852071 -8.797152,-9.334825 -11.153212,-14.269887 -1.89425,-3.967763 -2.65534,-6.984039 -2.82743,-11.205511 -0.21071,-5.1685853 0.62875,-8.2514283 3.32077,-12.1951857 1.07858,-1.58009963 4.25457,-4.7810738 5.84799,-5.8939827 l 0.90911,-0.6349683 -0.80779,1.177544 c -2.75917,4.02210855 -4.3256,9.4301152 -4.31257,14.8888767 0.0237,9.934377 4.18544,20.427775 11.535222,29.085022 1.89684,2.234273 2.139621,3.023504 0.49816,1.619416 z m 7.307201,-1.422635 c -1.780704,-4.663189 -3.099334,-9.848022 -4.036983,-15.873344 -0.512305,-3.292068 -0.598961,-4.906465 -0.610703,-11.377083 -0.01445,-7.9574711 0.130728,-9.3566962 1.48228,-14.28750033 1.14141,-4.16414747 3.307898,-7.66184387 5.241999,-8.46297577 3.200355,-1.3256289 6.698996,4.6687846 8.25954,14.1515174 0.520841,3.1649221 0.435748,14.1969917 -0.141835,18.3885417 -0.871823,6.326857 -2.210723,11.893066 -4.089072,16.999479 l -0.948915,2.579688 h -2.1737 -2.1737 z m 11.100925,-0.85824 c 1.32162,-1.637109 2.942341,-3.827327 3.601603,-4.867153 l 1.198655,-1.890591 0.789274,1.493716 0.789273,1.493716 -1.810131,1.689147 c -2.484747,2.318671 -6.029555,5.057728 -6.545564,5.057728 -0.274534,0 0.428514,-1.058569 1.97689,-2.976563 z m 10.397556,-21.721106 c 0.08499,-0.338614 0.287602,-2.074013 0.450257,-3.856442 0.722141,-7.9134948 -1.595371,-15.38328558 -6.357239,-20.4906144 l -1.200348,-1.2874334 1.057074,0.440989 c 3.719944,1.5518738 7.066984,3.8714495 9.652235,6.68921699 2.64858,2.88679471 3.905793,6.02849951 4.160425,10.39668881 l 0.146701,2.51661 -1.051261,1.626508 c -0.578194,0.89458 -1.197139,1.978684 -1.375431,2.409118 -0.288441,0.696357 -0.480433,0.79874 -1.741998,0.928945 -0.77981,0.08048 -1.975181,0.392874 -2.656383,0.694203 l -1.238551,0.54787 z" id="path250"/>
      <path style="fill:#899195;stroke-width:0.264583" d="m -90.916131,62.062556 c 0,-2.110052 0.04109,-2.973256 0.09131,-1.91823 0.05022,1.055027 0.05022,2.781433 0,3.836459 -0.05022,1.055026 -0.09131,0.191823 -0.09131,-1.918229 z m -1.057658,-0.396875 c 2.64e-4,-2.182813 0.04135,-3.040573 0.09107,-1.906135 0.04972,1.134435 0.04941,2.920373 -7.94e-4,3.96875 -0.05009,1.048374 -0.09076,0.120197 -0.09039,-2.062615 z m 6.597721,-6.217709 c 0,-1.091406 0.0467,-1.53789 0.103786,-0.992187 0.05708,0.545703 0.05708,1.438672 0,1.984375 -0.05708,0.545703 -0.103786,0.09922 -0.103786,-0.992188 z m 9.800685,-7.9375 c 0,-1.673489 0.04296,-2.358099 0.09547,-1.521354 0.05251,0.836745 0.05251,2.205964 0,3.042708 -0.05251,0.836745 -0.09547,0.152136 -0.09547,-1.521354 z m 7.440568,-9.260416 c 0.26339,-0.291042 0.538422,-0.529167 0.611182,-0.529167 0.07276,0 -0.08321,0.238125 -0.346599,0.529167 -0.26339,0.291041 -0.538421,0.529166 -0.611182,0.529166 -0.07276,0 0.08321,-0.238125 0.346599,-0.529166 z m -47.156065,-26.9875 c 0,-0.654844 0.0516,-0.922735 0.11467,-0.595313 0.0631,0.327422 0.0631,0.863203 0,1.190625 -0.0631,0.327422 -0.11467,0.05953 -0.11467,-0.595312 z m 59.326898,0.264583 c 0.26339,-0.291042 0.538422,-0.529167 0.611183,-0.529167 0.07276,0 -0.08321,0.238125 -0.346599,0.529167 -0.26339,0.291042 -0.538422,0.529167 -0.611183,0.529167 -0.07276,0 0.08321,-0.238125 0.346599,-0.529167 z m -6.110554,-16.2057292 -0.504029,-0.5953125 0.595312,0.5040286 c 0.327422,0.2772146 0.595313,0.5451052 0.595313,0.5953125 0,0.2117328 -0.212934,0.055417 -0.686596,-0.5040286 z" id="path248"/>
      <path style="fill:#fe604b;stroke-width:0.264583" d="m -114.41509,49.695841 c -0.10196,-0.321236 -0.50397,-0.834673 -0.89337,-1.140968 -0.65428,-0.51466 -0.6718,-0.577157 -0.23093,-0.823884 0.26239,-0.146836 0.70664,-0.643474 0.98723,-1.103643 0.31701,-0.519901 0.51053,-0.670269 0.51115,-0.397163 5.5e-4,0.241723 0.37065,0.750554 0.82247,1.130731 l 0.82148,0.691232 -0.71123,0.559456 c -0.39118,0.307703 -0.80353,0.808948 -0.91633,1.11388 l -0.2051,0.554424 z" id="path246"/>
      <path style="fill:#798187;stroke-width:0.264583" d="m -104.54877,35.934952 c -0.32911,-0.419646 -0.31975,-0.429004 0.0999,-0.0999 0.25466,0.199721 0.46302,0.408081 0.46302,0.463021 0,0.217763 -0.21727,0.0776 -0.56291,-0.363124 z m 41.15981,-39.0260422 -0.777105,-0.8598958 0.859896,0.7771051 c 0.472943,0.4274079 0.859896,0.814361 0.859896,0.8598958 0,0.2044065 -0.218316,0.024447 -0.942687,-0.7771051 z" id="path244"/>
      <path style="fill:#6d867e;stroke-width:0.264583" d="m -79.275213,61.930264 c 5.3e-4,-2.037292 0.04194,-2.835754 0.09229,-1.774362 0.05035,1.061392 0.05001,2.728267 -7.94e-4,3.704167 -0.05072,0.975899 -0.09191,0.107487 -0.0915,-1.929805 z m -22.751407,-23.481771 -0.50403,-0.595312 0.59531,0.504028 c 0.55945,0.473663 0.71577,0.686597 0.50403,0.686597 -0.0502,0 -0.3181,-0.267891 -0.59531,-0.595313 z m -1.7284,-1.719791 c -0.32911,-0.419646 -0.31975,-0.429004 0.0999,-0.0999 0.25466,0.199721 0.46302,0.408081 0.46302,0.463021 0,0.217763 -0.21727,0.07761 -0.56291,-0.363124 z m -4.72875,-41.2088547 c 0.49365,-0.5093229 0.95708,-0.9260416 1.02984,-0.9260416 0.0728,0 -0.27161,0.4167187 -0.76526,0.9260416 -0.49365,0.509323 -0.95709,0.9260417 -1.02985,0.9260417 -0.0728,0 0.27161,-0.4167187 0.76527,-0.9260417 z" id="path242"/>
      <path style="fill:#5e7696;stroke-width:0.264583" d="m -77.694221,47.775056 c 0,-1.527969 0.04373,-2.153047 0.09718,-1.389063 0.05345,0.763985 0.05345,2.014141 0,2.778125 -0.05345,0.763985 -0.09718,0.138906 -0.09718,-1.389062 z m 5.326073,-8.466667 c 0.26339,-0.291042 0.538421,-0.529167 0.611182,-0.529167 0.07276,0 -0.08321,0.238125 -0.346599,0.529167 -0.26339,0.291042 -0.538422,0.529167 -0.611182,0.529167 -0.07276,0 0.08321,-0.238125 0.346599,-0.529167 z m 1.984375,-1.670291 c 0,-0.04554 0.386953,-0.432488 0.859896,-0.859896 l 0.859895,-0.777105 -0.777105,0.859896 c -0.724371,0.801545 -0.942686,0.981512 -0.942686,0.777105 z m 13.295889,-26.243251 c 0.0029,-0.582083 0.05712,-0.789053 0.120407,-0.459935 0.06329,0.329117 0.06088,0.805367 -0.0053,1.058333 -0.06622,0.252965 -0.118004,-0.01633 -0.115067,-0.598398 z m -0.310417,-2.9324641 c 0.0127,-0.3082263 0.07539,-0.3709193 0.159851,-0.1598533 0.07643,0.1909948 0.06703,0.4191979 -0.02088,0.507119 -0.08792,0.087918 -0.150453,-0.068352 -0.138965,-0.3472657 z" id="path240"/>
      <path style="fill:#535e65;stroke-width:0.264583" d="m -90.405128,67.506154 c -0.461486,-0.205399 -0.967501,-0.613439 -1.124479,-0.906756 -0.171426,-0.320313 -0.285416,-2.294964 -0.285416,-4.944277 0,-3.129275 -0.119306,-4.871394 -0.410594,-5.995508 -0.225827,-0.871496 -0.364892,-1.721642 -0.309033,-1.889215 0.05586,-0.167574 0.312981,0.558046 0.571386,1.612489 l 0.469826,1.917169 h 3.134908 3.134907 l 0.09131,-1.91823 0.09131,-1.918229 0.05257,1.918229 0.05257,1.91823 h 3.132897 3.132897 L -78.334,55.778702 c 0.315656,-1.428983 0.784408,-2.637574 0.79529,-2.050521 0.0027,0.145521 -0.170863,0.919427 -0.385688,1.719791 -0.272243,1.014278 -0.391547,2.83686 -0.393735,6.015096 l -0.0031,4.55989 -0.771467,0.864068 -0.771467,0.864071 -4.850929,0.06425 c -3.716261,0.04923 -5.047192,-0.0231 -5.689992,-0.309197 z m 10.390601,-0.883587 c 0.710282,-0.474268 0.899504,-1.485527 0.899504,-4.807201 v -3.456977 h -5.953125 -5.953125 v 3.645294 c 0,5.154917 -0.398286,4.822373 5.769689,4.817322 2.720266,-0.0021 5.076939,-0.09153 5.237057,-0.198438 z m 27.290551,0.435219 c -0.245433,-0.427644 -0.806196,-0.982374 -1.24614,-1.232736 -0.439941,-0.250362 -0.799894,-0.514734 -0.799894,-0.587494 0,-0.07276 0.353949,-0.333688 0.786554,-0.579837 0.432607,-0.24615 1.015325,-0.823728 1.294931,-1.283502 0.468202,-0.769895 0.521907,-0.793316 0.679638,-0.296355 0.09419,0.296784 0.592058,0.909066 1.106363,1.360633 l 0.935101,0.821029 -0.713017,0.560861 c -0.39216,0.308473 -0.911982,0.888026 -1.155158,1.287897 l -0.442137,0.727035 z M -93.397308,52.203651 c -1.083001,-0.557773 -1.320009,-1.398232 -1.324232,-4.695901 l -0.0039,-3.045428 -1.805204,-1.376704 c -4.570906,-3.485917 -9.400536,-8.510527 -12.251506,-12.74613 -4.62509,-6.871362 -6.52054,-12.904788 -6.24255,-19.870682 0.24546,-6.1505998 2.41306,-10.74907396 7.23526,-15.34935 5.94064,-5.66724 13.596175,-8.546999 22.721292,-8.546999 6.058146,0 10.824839,1.131564 15.977949,3.7930001 7.957754,4.1099555 13.0283,10.9490219 13.923989,18.7804319 0.163052,1.425633 0.145881,1.475049 -0.844836,2.431508 l -1.011269,0.976299 -0.06775,-2.000319 c -0.35555,-10.49772467 -9.734809,-19.599185 -22.296811,-21.636408 -3.186536,-0.516773 -8.525968,-0.523303 -11.446531,-0.014 -9.791813,1.7075491 -17.871043,7.5687579 -20.980193,15.2204126 -1.84085,4.5303705 -1.87388,9.8914554 -0.097,15.7503394 0.82246,2.711963 3.17791,7.312556 5.2091,10.17425 2.05248,2.891697 8.215169,9.182129 11.211908,11.444306 l 2.013932,1.520277 h 8.357364 8.357365 l 2.593287,-2.099085 c 1.426305,-1.154496 3.201326,-2.638822 3.944488,-3.298497 l 1.351206,-1.199412 0.633169,0.680072 0.633172,0.680069 -1.852084,1.727886 c -1.018645,0.950338 -2.834349,2.4957 -4.034895,3.434138 l -2.182813,1.706253 V 47.9 c 0,2.810833 -0.06911,3.341423 -0.505489,3.880644 l -0.505489,0.624623 -8.027324,0.06818 c -6.106281,0.05187 -8.184372,-0.0127 -8.683566,-0.269798 z m 15.869785,-4.428595 v -2.645834 h -7.540625 -7.540625 v 2.645834 2.645833 h 7.540625 7.540625 z" id="path238"/>
    </g>
  </g>
</svg>