<?xml version="1.0" encoding="utf-8"?>
<svg width="111.125mm" height="111.125mm" viewBox="0 0 111.125 111.125" version="1.1" id="svg8" xmlns="http://www.w3.org/2000/svg">
  <g id="layer1">
    <g id="g207" transform="translate(135.41662,32.753614)">
      <g id="g165" transform="translate(-5.7838604,-101.04888)">
        <path style="fill:#fdf7d1;stroke-width:0.264583" d="m -115.72629,102.80199 c -1.18943,-1.04434 -1.4995,-2.31465 -0.88138,-3.610872 1.02928,-2.158418 3.53679,-2.522802 5.1614,-0.75004 0.7597,0.828971 0.86802,1.106625 0.73986,1.896392 -0.2803,1.72727 -1.42852,2.87924 -3.148,3.15828 -0.76364,0.12392 -1.06984,0.0104 -1.87188,-0.69376 z" id="path191"/>
        <path style="fill:#dbe3ed;stroke-width:0.264583" d="m -37.748586,155.64476 -0.504029,-0.59531 0.595313,0.50402 c 0.327421,0.27722 0.595312,0.54511 0.595312,0.59532 0,0.21173 -0.212934,0.0554 -0.686596,-0.50403 z m -2.27343,-0.90834 c 0.190995,-0.0764 0.419201,-0.067 0.507119,0.0209 0.08792,0.0879 -0.06835,0.15045 -0.347266,0.13897 -0.308226,-0.0127 -0.370919,-0.0754 -0.159853,-0.15986 z m -88.544034,-15.42968 c 0,-0.3638 0.0601,-0.51263 0.13346,-0.33073 0.0734,0.1819 0.0734,0.47956 0,0.66146 -0.0734,0.1819 -0.13346,0.0331 -0.13346,-0.33073 z m 43.600234,-10.25261 -0.911799,-0.99218 0.992188,0.9118 c 0.923506,0.84868 1.11384,1.07257 0.911799,1.07257 -0.04421,0 -0.490699,-0.44648 -0.992188,-0.99219 z m 5.536742,-3.96875 c -0.329107,-0.41964 -0.319749,-0.429 0.0999,-0.0999 0.254661,0.19972 0.46302,0.40808 0.46302,0.46302 0,0.21776 -0.217273,0.0776 -0.562917,-0.36313 z m 14.2875,-3.175 c -0.329107,-0.41964 -0.319749,-0.429 0.0999,-0.0999 0.254661,0.19972 0.46302,0.40808 0.46302,0.46302 0,0.21776 -0.217273,0.0776 -0.562917,-0.36313 z m 3.605626,-0.0661 c 0.26339,-0.29104 0.538421,-0.52917 0.611182,-0.52917 0.07276,0 -0.08321,0.23813 -0.346599,0.52917 -0.26339,0.29104 -0.538422,0.52916 -0.611182,0.52916 -0.07276,0 0.08321,-0.23812 0.346599,-0.52916 z m 37.215733,-0.79375 c 0,-0.3638 0.06006,-0.51263 0.133453,-0.33073 0.0734,0.1819 0.0734,0.47956 0,0.66146 -0.0734,0.1819 -0.133453,0.0331 -0.133453,-0.33073 z m -41.275,-0.26459 c 0,-0.3638 0.06005,-0.51263 0.133453,-0.33072 0.0734,0.1819 0.0734,0.47955 0,0.66145 -0.0734,0.1819 -0.133453,0.0331 -0.133453,-0.33073 z m -5.102609,-1.78593 c -0.329107,-0.41965 -0.319749,-0.42901 0.0999,-0.0999 0.254661,0.19972 0.46302,0.40808 0.46302,0.46302 0,0.21776 -0.217273,0.0776 -0.562917,-0.36312 z m 46.642192,-1.12448 c 0,-0.3638 0.06006,-0.51263 0.133454,-0.33073 0.0734,0.1819 0.0734,0.47956 0,0.66146 -0.0734,0.1819 -0.133454,0.0331 -0.133454,-0.33073 z m -60.102191,-0.0999 c 0,-0.0549 0.208359,-0.2633 0.463021,-0.46302 0.419645,-0.32911 0.429003,-0.31975 0.0999,0.0999 -0.345644,0.44073 -0.562917,0.58088 -0.562917,0.36312 z m -1.852084,-0.52916 c 0,-0.055 0.20836,-0.2633 0.463021,-0.46303 0.419645,-0.3291 0.429004,-0.31974 0.0999,0.0999 -0.345643,0.44073 -0.562917,0.58089 -0.562917,0.36313 z m 3.175,-0.79375 c 0,-0.055 0.20836,-0.2633 0.463021,-0.46303 0.419645,-0.3291 0.429004,-0.31974 0.0999,0.0999 -0.345643,0.44073 -0.562917,0.58089 -0.562917,0.36313 z m 17.712841,-1.42146 -0.911799,-0.99219 0.992188,0.9118 c 0.923506,0.84868 1.11384,1.07257 0.911799,1.07257 -0.04421,0 -0.490699,-0.44648 -0.992188,-0.99218 z m -48.861614,-5.09323 c 0,-0.65485 0.0516,-0.92274 0.11467,-0.59531 0.0631,0.32742 0.0631,0.8632 0,1.19062 -0.0631,0.32742 -0.11467,0.0595 -0.11467,-0.59531 z m 4.5415,-4.56406 -0.7771,-0.8599 0.85989,0.7771 c 0.47295,0.42741 0.8599,0.81437 0.8599,0.8599 0,0.20441 -0.21832,0.0244 -0.94269,-0.7771 z m 0.52917,-0.52917 -0.7771,-0.8599 0.85989,0.77711 c 0.80154,0.72437 0.98151,0.94268 0.77711,0.94268 -0.0455,0 -0.43249,-0.38695 -0.8599,-0.85989 z m -10.98359,-9.921876 -0.64143,-0.727604 0.7276,0.641432 c 0.40018,0.35279 0.72761,0.680212 0.72761,0.727604 0,0.207507 -0.21426,0.03862 -0.81378,-0.641432 z m 0.52917,-0.529167 -0.64143,-0.727604 0.7276,0.641432 c 0.68005,0.599517 0.84894,0.813776 0.64143,0.813776 -0.0474,0 -0.37481,-0.327422 -0.7276,-0.727604 z m 5.38375,-4.564062 c 0,-0.654844 0.0516,-0.922735 0.11467,-0.595313 0.0631,0.327422 0.0631,0.863203 0,1.190625 -0.0631,0.327422 -0.11467,0.05953 -0.11467,-0.595312 z m 13.42169,-10.687318 c 0,-0.05719 0.18478,-0.17489 0.41062,-0.261553 0.235455,-0.09035 0.341659,-0.046 0.248965,0.103985 -0.155375,0.251408 -0.659585,0.371858 -0.659585,0.157568 z m 8.466667,-0.160599 c -0.218282,-0.141064 -0.277813,-0.25648 -0.132292,-0.25648 0.145521,0 0.443177,0.115416 0.661458,0.25648 0.218282,0.141064 0.277813,0.25648 0.132292,0.25648 -0.145521,0 -0.443177,-0.115416 -0.661458,-0.25648 z m -2.401277,-1.521354 -0.641432,-0.727604 0.727605,0.641433 c 0.400182,0.352788 0.727604,0.68021 0.727604,0.727604 0,0.207506 -0.21426,0.03862 -0.813777,-0.641433 z" id="path189"/>
        <path style="fill:#d8dce3;stroke-width:0.264583" d="m -40.699434,167.48486 c 0.0029,-0.58208 0.05712,-0.78905 0.120407,-0.45993 0.06329,0.32912 0.06088,0.80537 -0.0053,1.05833 -0.06622,0.25297 -0.118004,-0.0163 -0.115067,-0.5984 z m -53.269277,-0.7364 c -0.643125,-0.33227 -7.907929,-5.60881 -16.144009,-11.72567 l -14.97469,-11.12154 -0.0584,-2.2101 -0.0584,-2.2101 0.8779,0.66434 c 4.97699,3.76626 29.15655,21.43072 29.856854,21.81203 0.7184,0.39116 1.467546,0.50036 3.432506,0.50036 2.21942,0 2.652863,-0.08 3.704167,-0.68374 0.654843,-0.37606 15.120937,-10.46384 32.146875,-22.41729 29.445452,-20.67285 30.96061,-21.69871 31.045597,-21.01992 0.04914,0.39248 0.01225,1.3307 -0.08199,2.08493 l -0.171334,1.37131 -31.535722,22.31142 c -17.344644,12.27129 -31.947847,22.52217 -32.451558,22.77975 -1.370021,0.70058 -4.097168,0.63431 -5.587757,-0.13578 z m 53.269277,-19.37193 c 0.0029,-0.58208 0.05712,-0.78905 0.120407,-0.45994 0.06329,0.32912 0.06088,0.80537 -0.0053,1.05834 -0.06622,0.25296 -0.118004,-0.0163 -0.115067,-0.5984 z m -63.897456,-0.30752 c 0.18191,-0.0734 0.47956,-0.0734 0.66146,0 0.1819,0.0734 0.0331,0.13345 -0.33073,0.13345 -0.3638,0 -0.51263,-0.06 -0.33073,-0.13345 z m -23.95935,-8.9529 c 0.005,-0.43656 0.0647,-0.58312 0.13177,-0.32569 0.0671,0.25743 0.0627,0.61462 -0.01,0.79375 -0.0725,0.17913 -0.12737,-0.0315 -0.12197,-0.46806 z m 3.58644,-37.88985 c 0.32742,-0.0631 0.8632,-0.0631 1.19062,0 0.32742,0.0631 0.0595,0.11467 -0.59531,0.11467 -0.65484,0 -0.92273,-0.0516 -0.59531,-0.11467 z m 6.9662,-0.232195 c 0.0127,-0.308226 0.0754,-0.370919 0.15985,-0.159853 0.0764,0.190998 0.067,0.419198 -0.0209,0.507118 -0.0879,0.0879 -0.15045,-0.0683 -0.13896,-0.347265 z m 13.14213,0.232195 c 0.32742,-0.0631 0.8632,-0.0631 1.19063,0 0.32742,0.0631 0.0595,0.11467 -0.59532,0.11467 -0.65484,0 -0.92273,-0.0516 -0.59531,-0.11467 z m 69.38698,-10.832174 c 0,-0.142548 0.386953,-0.608876 0.859896,-1.036284 l 0.859896,-0.777106 -0.79375,0.92472 c -0.436563,0.508596 -0.823516,0.974924 -0.859896,1.036285 -0.03638,0.06136 -0.06615,-0.0051 -0.06615,-0.147615 z m 11.1125,-11.33839 c 0.341776,-0.363802 0.68094,-0.661458 0.7537,-0.661458 0.07276,0 -0.147341,0.297656 -0.489117,0.661458 -0.341775,0.363802 -0.680939,0.661459 -0.7537,0.661459 -0.07276,0 0.147341,-0.297657 0.489117,-0.661459 z" id="path187"/>
        <path style="fill:#bad1f3;stroke-width:0.264583" d="m -41.798307,160.27571 c -0.997643,-0.99765 -1.240118,-1.94377 -0.840221,-3.27851 0.380161,-1.26887 1.556247,-2.07763 3.023309,-2.07906 1.483069,-0.001 2.817812,1.36601 2.817812,2.88686 0,1.59072 -1.277479,2.93322 -2.973017,3.12433 -1.110586,0.12518 -1.31495,0.0593 -2.027883,-0.65362 z m -41.8641,-32.27991 c -0.329107,-0.41964 -0.319749,-0.429 0.0999,-0.0999 0.254662,0.19973 0.463021,0.40808 0.463021,0.46303 0,0.21776 -0.217273,0.0776 -0.562917,-0.36313 z m 18.554584,0.0985 c 0,-0.0549 0.208359,-0.2633 0.463021,-0.46302 0.419645,-0.32911 0.429003,-0.31975 0.0999,0.0999 -0.345644,0.44073 -0.562917,0.58088 -0.562917,0.36312 z m -22.468695,-4.28777 c 0.0127,-0.30823 0.07539,-0.37092 0.159851,-0.15986 0.07643,0.191 0.06703,0.4192 -0.02088,0.50712 -0.08792,0.0879 -0.150452,-0.0683 -0.138964,-0.34726 z m 21.252932,-7.58473 -0.504029,-0.59531 0.595313,0.50403 c 0.559445,0.47366 0.715761,0.68659 0.504028,0.68659 -0.05021,0 -0.318098,-0.26789 -0.595312,-0.59531 z m -18.892571,0.24794 c 0,-0.0455 0.386953,-0.43249 0.859896,-0.8599 l 0.859896,-0.7771 -0.777105,0.8599 c -0.724371,0.80154 -0.942687,0.98151 -0.942687,0.7771 z M -96.259963,82.50465 c -0.401508,-1.151768 -1.651854,-2.488508 -2.814611,-3.00909 l -1.048016,-0.469212 0.904776,-0.382138 c 1.173274,-0.495537 2.318747,-1.652822 2.893414,-2.923251 l 0.45769,-1.011821 0.186502,0.747237 c 0.290888,1.165471 1.409134,2.445202 2.673345,3.059403 l 1.154009,0.560662 -1.008917,0.451706 c -1.2436,0.556776 -2.06521,1.391805 -2.67185,2.715481 l -0.464224,1.01293 z" id="path185"/>
        <path style="fill:#cbd0d6;stroke-width:0.264583" d="m -34.96535,162.39163 -0.641432,-0.7276 0.727605,0.64143 c 0.680055,0.59952 0.848939,0.81378 0.641432,0.81378 -0.04739,0 -0.374815,-0.32742 -0.727605,-0.72761 z m -10.30605,-10.2604 c -0.37574,-0.39996 -0.793541,-0.60658 -1.038307,-0.51349 -0.330774,0.1258 -0.345162,0.0909 -0.07478,-0.18148 0.270907,-0.27288 0.497157,-0.17489 1.185537,0.51349 0.467908,0.46791 0.784484,0.85074 0.703508,0.85074 -0.08098,0 -0.430157,-0.30117 -0.775962,-0.66926 z m -54.211368,-8.48091 c 0.0127,-0.30823 0.07539,-0.37092 0.159851,-0.15986 0.07643,0.191 0.06703,0.4192 -0.02088,0.50712 -0.08792,0.0879 -0.150452,-0.0684 -0.138964,-0.34726 z m -29.049382,-7.38629 c 0.002,-0.7276 0.0534,-0.99386 0.11419,-0.59167 0.0608,0.40218 0.0592,0.99749 -0.004,1.32291 -0.0628,0.32542 -0.11257,-0.004 -0.11058,-0.73124 z m 105.75766,-12.93219 c 0,-0.0549 0.208359,-0.2633 0.463021,-0.46302 0.419645,-0.32911 0.429003,-0.31975 0.0999,0.0999 -0.345644,0.44073 -0.562917,0.58088 -0.562917,0.36312 z m 2.137556,-10.37319 c 0.0127,-0.30823 0.07539,-0.37092 0.15985,-0.15985 0.07643,0.19099 0.06703,0.41919 -0.02088,0.50711 -0.08792,0.0879 -0.150453,-0.0683 -0.138965,-0.34726 z m -98.710476,-7.65087 c 0.34178,-0.3638 0.68094,-0.66146 0.7537,-0.66146 0.0728,0 -0.14734,0.29766 -0.48911,0.66146 -0.34178,0.3638 -0.68094,0.66146 -0.7537,0.66146 -0.0728,0 0.14734,-0.29766 0.48911,-0.66146 z m 10.31875,-10.31875 c 0.34178,-0.363802 0.68094,-0.661459 0.7537,-0.661459 0.0728,0 -0.14734,0.297657 -0.48911,0.661459 -0.34178,0.363802 -0.68094,0.661458 -0.7537,0.661458 -0.0728,0 0.14734,-0.297656 0.48911,-0.661458 z m 74.612503,-6.085417 c 0.341776,-0.363802 0.68094,-0.661458 0.7537,-0.661458 0.07276,0 -0.147341,0.297656 -0.489116,0.661458 -0.341776,0.363802 -0.68094,0.661458 -0.7537,0.661458 -0.07276,0 0.147341,-0.297656 0.489116,-0.661458 z m 10.034141,-0.06615 -0.641432,-0.727604 0.727604,0.641433 c 0.400182,0.352788 0.727604,0.68021 0.727604,0.727604 0,0.207506 -0.21426,0.03862 -0.813776,-0.641433 z m 0.571944,-0.167159 -0.638707,-0.825028 0.756968,0.719586 c 0.416332,0.395773 0.703749,0.767035 0.638707,0.825028 -0.06504,0.05799 -0.405678,-0.265821 -0.756968,-0.719586 z m -5.771523,-0.428153 c 0,-0.654844 0.0516,-0.922735 0.114663,-0.595313 0.06307,0.327422 0.06307,0.863203 0,1.190625 -0.06306,0.327422 -0.114663,0.05953 -0.114663,-0.595312 z m 0.529167,0 c 0,-0.654844 0.0516,-0.922735 0.114662,-0.595313 0.06307,0.327422 0.06307,0.863203 0,1.190625 -0.06306,0.327422 -0.114662,0.05953 -0.114662,-0.595312 z m -0.529167,-9.525 c 0,-0.654844 0.0516,-0.922735 0.114663,-0.595313 0.06307,0.327422 0.06307,0.863203 0,1.190625 -0.06306,0.327422 -0.114663,0.05953 -0.114663,-0.595312 z m 0.529167,0 c 0,-0.654844 0.0516,-0.922735 0.114662,-0.595313 0.06307,0.327422 0.06307,0.863203 0,1.190625 -0.06306,0.327422 -0.114662,0.05953 -0.114662,-0.595312 z m -5.777249,-0.330729 -0.777105,-0.859896 0.859896,0.777105 c 0.472943,0.427408 0.859896,0.814361 0.859896,0.859896 0,0.204407 -0.218316,0.02444 -0.942687,-0.777105 z m 10.203104,0.777105 c 0,-0.04554 0.386953,-0.432488 0.859896,-0.859896 l 0.859895,-0.777105 -0.777105,0.859896 c -0.724371,0.801543 -0.942686,0.981512 -0.942686,0.777105 z m -9.80961,-1.17398 -0.641432,-0.727605 0.727604,0.641433 c 0.400182,0.352789 0.727604,0.680211 0.727604,0.727605 0,0.207505 -0.214259,0.03862 -0.813776,-0.641433 z" id="path183"/>
        <path style="fill:#a5b8d6;stroke-width:0.264583" d="m -46.057823,163.56561 c 0,-0.0455 0.386953,-0.43248 0.859896,-0.85989 l 0.859895,-0.77711 -0.777105,0.8599 c -0.724371,0.80154 -0.942686,0.98151 -0.942686,0.7771 z m 8.73125,-2.39835 c 0,-0.0549 0.208359,-0.2633 0.463021,-0.46302 0.419645,-0.32911 0.429003,-0.31975 0.0999,0.0999 -0.345644,0.44073 -0.562917,0.58089 -0.562917,0.36313 z m 0.550055,-3.49403 c 0.0127,-0.30822 0.07539,-0.37092 0.159851,-0.15985 0.07643,0.19099 0.06703,0.4192 -0.02088,0.50712 -0.08792,0.0879 -0.150452,-0.0684 -0.138964,-0.34727 z m -14.109951,-0.56155 c 0.327422,-0.0631 0.863203,-0.0631 1.190625,0 0.327422,0.0631 0.05953,0.11466 -0.595313,0.11466 -0.654843,0 -0.922734,-0.0516 -0.595312,-0.11466 z m 20.108333,0 c 0.327422,-0.0631 0.863203,-0.0631 1.190625,0 0.327422,0.0631 0.05953,0.11466 -0.595312,0.11466 -0.654844,0 -0.922735,-0.0516 -0.595313,-0.11466 z m -4.167187,-4.70807 c 0.341775,-0.3638 0.680939,-0.66146 0.7537,-0.66146 0.07276,0 -0.147341,0.29766 -0.489117,0.66146 -0.341776,0.36381 -0.68094,0.66146 -0.7537,0.66146 -0.07276,0 0.147341,-0.29765 0.489117,-0.66146 z m -74.327027,-8.75329 c 0.0127,-0.30823 0.0754,-0.37092 0.15985,-0.15986 0.0764,0.191 0.067,0.4192 -0.0209,0.50712 -0.0879,0.0879 -0.15045,-0.0684 -0.13896,-0.34726 z m -19.28389,-9.23837 c 0.005,-0.43657 0.0647,-0.58313 0.13177,-0.3257 0.0671,0.25743 0.0627,0.61462 -0.01,0.79375 -0.0725,0.17913 -0.12737,-0.0315 -0.12197,-0.46805 z m 57.363,-9.22802 c 0,-0.055 0.208359,-0.2633 0.463021,-0.46303 0.419645,-0.3291 0.429003,-0.31974 0.0999,0.0999 -0.345644,0.44073 -0.562917,0.58089 -0.562917,0.36313 z m -16.342783,-2.54594 c 0,-0.50932 0.05445,-0.71768 0.121002,-0.46302 0.06655,0.25466 0.06655,0.67138 0,0.92604 -0.06655,0.25466 -0.121002,0.0463 -0.121002,-0.46302 z m 1.567891,0 c 0,-0.3638 0.06006,-0.51263 0.133454,-0.33073 0.0734,0.1819 0.0734,0.47956 0,0.66146 -0.0734,0.1819 -0.133454,0.0331 -0.133454,-0.33073 z m 24.870834,-2.11667 c 0,-0.3638 0.06006,-0.51263 0.133453,-0.33073 0.0734,0.1819 0.0734,0.47956 0,0.66146 -0.0734,0.1819 -0.133453,0.0331 -0.133453,-0.33073 z m -22.266775,-3.83646 c 0.341775,-0.3638 0.680939,-0.66146 0.7537,-0.66146 0.07276,0 -0.147341,0.29766 -0.489117,0.66146 -0.341776,0.36381 -0.68094,0.66146 -0.7537,0.66146 -0.07276,0 0.147341,-0.29765 0.489117,-0.66146 z m 62.727139,-4.51996 c 0.0127,-0.30823 0.07539,-0.37092 0.15985,-0.15985 0.07643,0.19099 0.06703,0.41919 -0.02088,0.50711 -0.08792,0.0879 -0.150453,-0.0683 -0.138965,-0.34726 z" id="path181"/>
        <path style="fill:#98a1ac;stroke-width:0.264583" d="m -45.79324,162.45778 c 0.341776,-0.3638 0.68094,-0.66146 0.7537,-0.66146 0.07276,0 -0.147341,0.29766 -0.489117,0.66146 -0.341775,0.3638 -0.680939,0.66146 -0.7537,0.66146 -0.07276,0 0.147341,-0.29766 0.489117,-0.66146 z m 5.098264,-0.31565 c 0.257432,-0.0671 0.614619,-0.0627 0.79375,0.01 0.179131,0.0725 -0.03149,0.12736 -0.468056,0.12197 -0.436562,-0.005 -0.583125,-0.0647 -0.325694,-0.13177 z m 0,-1.05833 c 0.257432,-0.0671 0.614619,-0.0627 0.79375,0.01 0.179131,0.0725 -0.03149,0.12736 -0.468056,0.12197 -0.436562,-0.005 -0.583125,-0.0647 -0.325694,-0.13178 z m 2.574653,-0.71029 c 0,-0.0549 0.208359,-0.2633 0.463021,-0.46302 0.419645,-0.32911 0.429003,-0.31975 0.0999,0.0999 -0.345644,0.44073 -0.562917,0.58089 -0.562917,0.36313 z m -12.766146,-2.73266 c 0.327422,-0.0631 0.863203,-0.0631 1.190625,0 0.327422,0.0631 0.05953,0.11466 -0.595313,0.11466 -0.654843,0 -0.922734,-0.0516 -0.595312,-0.11466 z m 20.108333,0 c 0.327422,-0.0631 0.863203,-0.0631 1.190625,0 0.327422,0.0631 0.05953,0.11466 -0.595312,0.11466 -0.654844,0 -0.922735,-0.0516 -0.595313,-0.11466 z m -4.696354,-5.50182 c 0.341776,-0.3638 0.68094,-0.66146 0.7537,-0.66146 0.07276,0 -0.147341,0.29766 -0.489117,0.66146 -0.341775,0.3638 -0.680939,0.66146 -0.7537,0.66146 -0.07276,0 0.147341,-0.29766 0.489117,-0.66146 z m -90.99578,-18.01371 c 0.0127,-0.30823 0.0754,-0.37092 0.15985,-0.15986 0.0764,0.191 0.067,0.4192 -0.0209,0.50712 -0.0879,0.0879 -0.15046,-0.0683 -0.13897,-0.34726 z M -22.753601,112.1649 c 0.0127,-0.30823 0.07539,-0.37092 0.159851,-0.15985 0.07643,0.19099 0.06703,0.41919 -0.02088,0.50711 -0.08792,0.0879 -0.150453,-0.0683 -0.138965,-0.34726 z m 0.474527,-3.74827 c -0.329107,-0.41964 -0.319749,-0.429 0.0999,-0.0999 0.254661,0.19972 0.46302,0.40808 0.46302,0.46302 0,0.21776 -0.217273,0.0776 -0.562917,-0.36313 z M -35.209907,89.39611 c 0,-0.340465 1.276771,-1.552878 1.451407,-1.378244 0.07182,0.07182 -0.225372,0.471592 -0.660416,0.888391 -0.435044,0.416799 -0.790991,0.637233 -0.790991,0.489853 z m 10.977565,-0.627549 c -0.4168,-0.435044 -0.637233,-0.79099 -0.489854,-0.79099 0.340465,0 1.552879,1.276772 1.378246,1.451406 -0.07182,0.07182 -0.471593,-0.225371 -0.888392,-0.660416 z m -5.084669,-0.526406 c 0,-0.654844 0.0516,-0.922735 0.114662,-0.595313 0.06307,0.327422 0.06307,0.863203 0,1.190625 -0.06306,0.327422 -0.114662,0.05953 -0.114662,-0.595312 z m -28.696672,0.348426 c 0.190995,-0.07643 0.419201,-0.06703 0.507119,0.02089 0.08792,0.08792 -0.06835,0.150453 -0.347265,0.138964 -0.308227,-0.01269 -0.37092,-0.07539 -0.159854,-0.159852 z m 23.06836,-5.110926 c 0,-0.145521 0.416718,-0.264584 0.926041,-0.264584 0.509323,0 0.926042,0.119063 0.926042,0.264584 0,0.145521 -0.416719,0.264583 -0.926042,0.264583 -0.509323,0 -0.926041,-0.119062 -0.926041,-0.264583 z m 9.525,0 c 0,-0.145521 0.416718,-0.264584 0.926041,-0.264584 0.509323,0 0.926042,0.119063 0.926042,0.264584 0,0.145521 -0.416719,0.264583 -0.926042,0.264583 -0.509323,0 -0.926041,-0.119062 -0.926041,-0.264583 z m -3.896688,-4.7625 c 0,-0.654844 0.0516,-0.922735 0.114662,-0.595313 0.06307,0.327422 0.06307,0.863203 0,1.190625 -0.06306,0.327422 -0.114662,0.05953 -0.114662,-0.595312 z m -5.36275,-0.395832 c -0.341233,-0.363228 -0.561668,-0.719174 -0.489852,-0.79099 0.07182,-0.07182 0.471593,0.22537 0.888391,0.660415 0.416801,0.435044 0.637233,0.79099 0.489855,0.79099 -0.147381,0 -0.547158,-0.297187 -0.888394,-0.660415 z m 10.447419,-0.130575 c 0.416799,-0.435045 0.816576,-0.732232 0.888392,-0.660415 0.174633,0.174634 -1.037781,1.451405 -1.378246,1.451405 -0.147379,0 0.07305,-0.355946 0.489854,-0.79099 z" id="path179"/>
        <path style="fill:#f35366;stroke-width:0.264583" d="m -124.14688,167.33062 -0.96301,-0.97803 0.63228,-0.28809 c 0.34776,-0.15845 0.63411,-0.37993 0.63634,-0.49219 0.002,-0.11226 0.11143,-0.37379 0.24268,-0.58117 0.19122,-0.30214 0.37907,-0.21015 0.94551,0.46302 0.38878,0.46204 0.90465,0.84086 1.14638,0.84182 0.29475,0.001 0.18395,0.1702 -0.33641,0.51323 -0.42675,0.28132 -0.903,0.73377 -1.05833,1.00546 -0.26199,0.45823 -0.35212,0.4232 -1.24544,-0.48405 z" id="path175"/>
        <path style="fill:#798593;stroke-width:0.264583" d="m -35.229933,162.9208 -0.641432,-0.7276 0.727604,0.64143 c 0.680056,0.59952 0.84894,0.81377 0.641432,0.81377 -0.04739,0 -0.374814,-0.32742 -0.727604,-0.7276 z m -5.337786,-9.23721 c 0.181901,-0.0734 0.479557,-0.0734 0.661458,0 0.181901,0.0734 0.03307,0.13346 -0.330729,0.13346 -0.363802,0 -0.51263,-0.0601 -0.330729,-0.13346 z m -5.245547,-1.34612 -0.641432,-0.72761 0.727604,0.64144 c 0.680056,0.59951 0.848939,0.81377 0.641432,0.81377 -0.04739,0 -0.374814,-0.32742 -0.727604,-0.7276 z m -58.646294,-12.15575 c 0.25743,-0.0671 0.61462,-0.0627 0.79375,0.01 0.17913,0.0725 -0.0315,0.12737 -0.46805,0.12197 -0.43657,-0.005 -0.58313,-0.0647 -0.3257,-0.13177 z m -21.97021,-2.46248 c 0,-0.50932 0.0545,-0.71768 0.121,-0.46302 0.0665,0.25466 0.0665,0.67138 0,0.92604 -0.0666,0.25466 -0.121,0.0463 -0.121,-0.46302 z m 6.02403,-31.92437 c 0,-0.1444 0.32742,-0.5512 0.7276,-0.90399 l 0.72761,-0.64143 -0.66146,0.79375 c -0.3638,0.43656 -0.69122,0.84336 -0.7276,0.90399 -0.0364,0.0606 -0.0661,-0.008 -0.0661,-0.15232 z m 11.17063,-11.343728 c 0.39577,-0.416332 0.76703,-0.703749 0.82503,-0.638706 0.058,0.06504 -0.26582,0.405677 -0.71959,0.756967 l -0.82503,0.638707 z m 50.940308,-7.971716 c 0.181901,-0.0734 0.479557,-0.0734 0.661458,0 0.181901,0.0734 0.03307,0.133452 -0.330729,0.133452 -0.363802,0 -0.512631,-0.06005 -0.330729,-0.133452 z" id="path173"/>
        <path style="fill:#687686;stroke-width:0.264583" d="m -91.367719,169.55859 c 0.181901,-0.0734 0.479557,-0.0734 0.661458,0 0.181901,0.0734 0.03307,0.13346 -0.330729,0.13346 -0.363802,0 -0.51263,-0.0601 -0.330729,-0.13346 z m 51.197452,-2.07373 c 0.0029,-0.58208 0.05712,-0.78905 0.120406,-0.45993 0.06329,0.32912 0.06088,0.80537 -0.0053,1.05833 -0.06622,0.25297 -0.118005,-0.0163 -0.115068,-0.5984 z m 4.452083,-10.07621 c 0.0127,-0.30823 0.07539,-0.37092 0.15985,-0.15985 0.07643,0.19099 0.06703,0.4192 -0.02087,0.50711 -0.08792,0.0879 -0.150453,-0.0684 -0.138965,-0.34726 z m -4.452083,-10.03212 c 0.0029,-0.58208 0.05712,-0.78905 0.120406,-0.45994 0.06329,0.32912 0.06088,0.80537 -0.0053,1.05834 -0.06622,0.25296 -0.118005,-0.0163 -0.115068,-0.5984 z m -86.300003,-8.48871 c 0.0127,-0.30823 0.0754,-0.37092 0.15985,-0.15986 0.0764,0.191 0.067,0.4192 -0.0209,0.50712 -0.0879,0.0879 -0.15046,-0.0684 -0.13897,-0.34726 z m 17.42159,-33.91077 -0.64143,-0.7276 0.7276,0.64143 c 0.68005,0.59952 0.84894,0.81377 0.64143,0.81377 -0.0474,0 -0.37481,-0.32742 -0.7276,-0.7276 z m -9.99237,-5.093229 c 0,-0.363802 0.0601,-0.51263 0.13346,-0.330729 0.0734,0.181901 0.0734,0.479558 0,0.661458 -0.0734,0.1819 -0.13346,0.0331 -0.13346,-0.330729 z m -5.92875,-0.186724 c 0.32742,-0.06307 0.8632,-0.06307 1.19062,0 0.32742,0.06306 0.0595,0.114662 -0.59531,0.114662 -0.65484,0 -0.92273,-0.0516 -0.59531,-0.114662 z m 20.10833,0 c 0.32742,-0.06307 0.8632,-0.06307 1.19063,0 0.32742,0.06306 0.0595,0.114662 -0.59532,0.114662 -0.65484,0 -0.92273,-0.0516 -0.59531,-0.114662 z m -6.3176,-3.186713 c -0.32911,-0.419645 -0.31975,-0.429004 0.0999,-0.0999 0.25466,0.19972 0.46302,0.40808 0.46302,0.463021 0,0.217762 -0.21727,0.07761 -0.56291,-0.363125 z m -3.47198,-1.299708 c 0.1819,-0.0734 0.47955,-0.0734 0.66146,0 0.1819,0.0734 0.0331,0.133454 -0.33073,0.133454 -0.36381,0 -0.51263,-0.06006 -0.33073,-0.133454 z m -4.98097,-0.816959 -0.64143,-0.727604 0.72761,0.641432 c 0.68005,0.599517 0.84893,0.813776 0.64143,0.813776 -0.0474,0 -0.37482,-0.327422 -0.72761,-0.727604 z" id="path171"/>
        <path style="fill:#576676;stroke-width:0.264583" d="m -35.09426,162.52393 -0.777105,-0.8599 0.859896,0.7771 c 0.472943,0.42741 0.859896,0.81437 0.859896,0.8599 0,0.20441 -0.218316,0.0245 -0.942687,-0.7771 z m -8.086897,-2.51355 c -0.329107,-0.41964 -0.319749,-0.429 0.0999,-0.0999 0.44073,0.34564 0.580888,0.56291 0.363125,0.56291 -0.05494,0 -0.2633,-0.20835 -0.463021,-0.46302 z m 6.085417,-5.82083 c -0.329108,-0.41964 -0.319749,-0.429 0.0999,-0.0999 0.44073,0.34565 0.580887,0.56292 0.363125,0.56292 -0.05494,0 -0.263301,-0.20836 -0.463021,-0.46302 z m -8.410165,-2.01924 -0.638707,-0.82503 0.756968,0.71959 c 0.416332,0.39577 0.703749,0.76703 0.638706,0.82502 -0.06504,0.058 -0.405677,-0.26582 -0.756967,-0.71958 z M -126.44938,139.8359 c 0,-0.3638 0.0601,-0.51263 0.13345,-0.33072 0.0734,0.1819 0.0734,0.47955 0,0.66145 -0.0734,0.1819 -0.13345,0.0331 -0.13345,-0.33073 z m 102.08739,-17.82697 c 0,-0.055 0.208359,-0.2633 0.463021,-0.46303 0.419645,-0.3291 0.429003,-0.31974 0.0999,0.0999 -0.345644,0.44073 -0.562917,0.58089 -0.562917,0.36313 z m -90.15619,-11.93865 c 0.003,-0.58208 0.0571,-0.78905 0.1204,-0.45994 0.0633,0.32912 0.0609,0.80537 -0.005,1.05834 -0.0662,0.25296 -0.118,-0.0163 -0.11506,-0.5984 z m -5.09381,-4.7625 c 0.34177,-0.3638 0.68094,-0.66146 0.7537,-0.66146 0.0728,0 -0.14734,0.29766 -0.48912,0.66146 -0.34177,0.3638 -0.68094,0.66146 -0.7537,0.66146 -0.0728,0 0.14735,-0.29766 0.48912,-0.66146 z m 10.29872,-0.0661 -0.64143,-0.7276 0.79375,0.66146 c 0.43656,0.3638 0.84336,0.69122 0.90399,0.7276 0.0606,0.0364 -0.008,0.0661 -0.15231,0.0661 -0.14441,0 -0.55121,-0.32742 -0.904,-0.72761 z m -5.05666,-1.5698 c 0.19099,-0.0764 0.4192,-0.067 0.50712,0.0209 0.0879,0.0879 -0.0684,0.15045 -0.34727,0.13896 -0.30822,-0.0127 -0.37092,-0.0754 -0.15985,-0.15985 z m -5.52667,-9.013529 -0.64143,-0.727605 0.7276,0.641432 c 0.40018,0.35279 0.72761,0.680212 0.72761,0.727605 0,0.207507 -0.21426,0.03862 -0.81378,-0.641432 z m 10.86794,0.06615 c 0.34178,-0.363802 0.68094,-0.661458 0.7537,-0.661458 0.0728,0 -0.14734,0.297656 -0.48911,0.661458 -0.34178,0.363802 -0.68094,0.661459 -0.7537,0.661459 -0.0728,0 0.14734,-0.297657 0.48911,-0.661459 z m -5.48952,-4.7625 c 0.003,-0.582083 0.0571,-0.789054 0.1204,-0.459936 0.0633,0.329119 0.0609,0.805369 -0.005,1.058334 -0.0662,0.252965 -0.118,-0.01631 -0.11506,-0.598398 z" id="path169"/>
        <a id="a270">
          <path style="fill:#49596b;stroke-width:0.264583" d="m -94.05066,169.07917 c -1.347973,-0.48042 -1.357133,-0.48696 -18.28529,-13.05482 -12.37275,-9.18583 -14.65069,-10.97918 -15.21054,-11.97478 -0.62638,-1.1139 -0.66278,-1.41592 -0.74708,-6.19804 l -0.0886,-5.02708 0.77448,-1.20488 c 0.69317,-1.07838 4.16026,-3.44233 33.026241,-22.51816 17.738468,-11.722317 32.668479,-21.529733 33.177802,-21.794264 1.486218,-0.771907 4.811684,-0.839718 6.614584,-0.13488 0.800364,0.3129 8.539427,5.295301 17.197916,11.072004 14.373728,9.58975 15.798798,10.60558 16.387713,11.68172 l 0.645006,1.17862 -0.313391,4.7745 c -0.265512,4.04512 -0.404468,4.95161 -0.909587,5.93382 -0.543637,1.05711 -3.44206,3.17331 -32.875366,24.00293 -19.465565,13.77557 -32.744251,23.00434 -33.450778,23.2485 -1.444914,0.49932 -4.561835,0.50709 -5.9431,0.0148 z m 5.296297,-1.82409 c 1.429818,-0.50447 64.678991,-45.24639 65.233505,-46.14562 0.301315,-0.48863 0.504695,-1.63885 0.6321,-3.57487 l 0.187846,-2.85444 -2.896762,2.06069 c -17.046471,12.12647 -61.970351,43.41327 -62.732089,43.68917 -1.325782,0.48017 -3.626117,0.51931 -5.112361,0.087 -0.888968,-0.25859 -5.215062,-3.29508 -16.139586,-11.32839 -8.20879,-6.03631 -15.39073,-11.34546 -15.95987,-11.79812 l -1.03481,-0.82302 0.17946,2.95467 c 0.0987,1.62506 0.31679,3.25609 0.48466,3.62451 0.33297,0.73081 29.928731,22.85299 31.940979,23.87519 1.369359,0.69562 3.621064,0.79629 5.216928,0.23324 z m 0.125288,-7.61727 c 1.078767,-0.36756 64.347592,-44.63645 65.391564,-45.75417 0.851562,-0.91171 0.947918,-2.03584 0.272508,-3.17921 -0.55608,-0.94137 -30.686137,-21.038572 -32.567613,-21.72309 -1.473644,-0.536142 -3.268117,-0.58072 -4.548124,-0.112984 -1.428131,0.521864 -64.29361,42.134254 -65.41823,43.302134 -1.09161,1.13359 -1.27346,2.12068 -0.62258,3.37934 0.42534,0.82253 31.159368,23.55214 32.510667,24.04355 1.119529,0.40712 3.845928,0.43144 4.981808,0.0444 z m -9.71263,-19.42188 c -8.569955,-6.1939 -15.694855,-11.37312 -15.833095,-11.50937 -0.1587,-0.15642 -0.15505,-0.34405 0.01,-0.50901 0.30685,-0.30685 31.67646,22.26107 31.812403,22.88647 0.04705,0.21645 -0.02537,0.39355 -0.160965,0.39355 -0.13558,0 -7.258296,-5.06774 -15.828253,-11.26164 z m -7.513665,6.53193 c -2.8355,-0.92842 -3.9551,-2.93627 -2.59877,-4.66055 1.28245,-1.63038 4.52403,-2.21891 6.72232,-1.2205 2.77176,1.25887 2.932228,3.85067 0.329,5.31377 -1.10856,0.62304 -3.39324,0.91412 -4.45255,0.56728 z m 55.951082,-39.46969 c -8.434705,-5.68668 -15.514421,-10.443264 -15.732702,-10.570195 -0.303366,-0.176406 -0.323935,-0.304488 -0.0873,-0.543608 0.237501,-0.239993 3.959233,2.143196 15.98557,10.236263 8.621794,5.80199 15.664931,10.66511 15.651411,10.80692 -0.01352,0.14181 -0.12731,0.29208 -0.252868,0.33393 -0.125558,0.0418 -7.129409,-4.57664 -15.564114,-10.26331 z m 4.425426,-3.71551 c -3.590367,-2.43388 -4.193455,-3.18567 -2.693366,-3.35745 0.938379,-0.10746 7.538363,4.35994 7.538363,5.10257 0,1.15393 -1.212887,0.71706 -4.844997,-1.74512 z m 5.044011,63.9222 c 0.0029,-0.58208 0.05712,-0.78905 0.120407,-0.45993 0.06329,0.32912 0.06088,0.80537 -0.0053,1.05833 -0.06622,0.25297 -0.118004,-0.0163 -0.115067,-0.5984 z m -5.358389,-4.7625 c 0.341776,-0.3638 0.740471,-0.66146 0.885992,-0.66146 0.145521,0 -0.01505,0.29766 -0.356825,0.66146 -0.341776,0.36381 -0.740471,0.66146 -0.885992,0.66146 -0.145521,0 0.01505,-0.29765 0.356825,-0.66146 z m 10.563307,-0.0661 -0.641432,-0.72761 0.727604,0.64144 c 0.680056,0.59951 0.84894,0.81377 0.641432,0.81377 -0.04739,0 -0.374814,-0.32742 -0.727604,-0.7276 z m -7.064814,-1.03477 c -1.760572,-0.86777 -2.936753,-3.13375 -2.564419,-4.9405 0.567455,-2.75355 3.619117,-4.54633 6.126306,-3.59905 0.91245,0.34475 2.119371,1.45813 2.620534,2.41743 0.536122,1.02622 0.463997,2.9652 -0.155467,4.17945 -1.042043,2.04257 -3.933428,2.97456 -6.026954,1.94267 z m 3.59225,-0.72603 c 1.364187,-0.70979 1.98596,-1.63873 2.096321,-3.13196 0.226221,-3.06092 -2.548938,-4.99632 -5.273197,-3.67753 -1.387866,0.67186 -2.149977,1.86299 -2.149977,3.36029 0,2.76224 2.961537,4.67987 5.326853,3.4492 z m -12.180887,-3.51956 c 0.329118,-0.0633 0.805368,-0.0609 1.058333,0.005 0.252966,0.0662 -0.01632,0.11801 -0.598397,0.11507 -0.582084,-0.003 -0.789054,-0.0571 -0.459936,-0.12041 z m 20.108333,0 c 0.329118,-0.0633 0.805368,-0.0609 1.058334,0.005 0.252965,0.0662 -0.01633,0.11801 -0.598398,0.11507 -0.582083,-0.003 -0.789054,-0.0571 -0.459936,-0.12041 z m -4.964022,-4.48313 c 0,-0.14552 0.297656,-0.54422 0.661458,-0.88599 0.363802,-0.34178 0.661458,-0.50235 0.661458,-0.35683 0,0.14552 -0.297656,0.54422 -0.661458,0.88599 -0.363802,0.34178 -0.661458,0.50235 -0.661458,0.35683 z m -10.074193,-0.81985 -0.641432,-0.7276 0.727604,0.64143 c 0.680056,0.59952 0.848939,0.81378 0.641432,0.81378 -0.04739,0 -0.374814,-0.32742 -0.727604,-0.72761 z m 5.378415,-4.69635 c 0.0029,-0.58208 0.05712,-0.78905 0.120407,-0.45994 0.06329,0.32912 0.06088,0.80537 -0.0053,1.05834 -0.06622,0.25296 -0.118004,-0.0163 -0.115067,-0.5984 z M -114.2536,110.07028 c 0.003,-0.58208 0.0571,-0.78905 0.12041,-0.45994 0.0633,0.32912 0.0609,0.80537 -0.005,1.05834 -0.0662,0.25296 -0.11801,-0.0163 -0.11507,-0.5984 z m -5.35839,-5.02708 c 0.34177,-0.36381 0.68094,-0.66146 0.7537,-0.66146 0.0728,0 -0.14734,0.29765 -0.48912,0.66146 -0.34177,0.3638 -0.68094,0.66145 -0.7537,0.66145 -0.0728,0 0.14735,-0.29765 0.48912,-0.66145 z m 10.29872,-0.0661 -0.64143,-0.7276 0.72761,0.64143 c 0.68005,0.59952 0.84893,0.81377 0.64143,0.81377 -0.0474,0 -0.37482,-0.32742 -0.72761,-0.7276 z m -6.4212,-0.71666 c -1.96379,-0.70019 -3.08377,-2.24638 -3.08377,-4.2573 0,-2.564926 1.61653,-4.355999 4.11879,-4.563507 1.74081,-0.144362 2.76304,0.23961 3.80879,1.430661 1.66295,1.893993 1.60356,4.538406 -0.14022,6.243406 -1.45579,1.42341 -2.92382,1.78131 -4.70359,1.14674 z m 3.51446,-1.1721 c 1.65413,-1.17701 2.15794,-3.2176 1.23504,-5.002283 -1.28464,-2.484229 -4.94286,-2.567705 -6.53737,-0.149175 -0.88186,1.337593 -0.53613,3.841078 0.66852,4.840848 1.28395,1.06558 3.37576,1.20579 4.63381,0.31061 z m -12.48212,-3.127015 c 0.32911,-0.06329 0.80536,-0.06088 1.05833,0.0053 0.25296,0.06621 -0.0163,0.117995 -0.5984,0.115065 -0.58208,-0.003 -0.78905,-0.0571 -0.45993,-0.120404 z m 20.10833,0 c 0.32912,-0.06329 0.80537,-0.06088 1.05833,0.0053 0.25297,0.06621 -0.0163,0.117995 -0.59839,0.115065 -0.58209,-0.003 -0.78906,-0.0571 -0.45994,-0.120404 z m -15.03822,-5.302974 -0.64143,-0.727605 0.72761,0.641432 c 0.40018,0.35279 0.7276,0.680212 0.7276,0.727605 0,0.207507 -0.21426,0.03862 -0.81378,-0.641432 z m 10.33878,0.06615 c 0.34177,-0.363802 0.68094,-0.661458 0.7537,-0.661458 0.0728,0 -0.14734,0.297656 -0.48912,0.661458 -0.34177,0.363802 -0.68094,0.661459 -0.7537,0.661459 -0.0728,0 0.14735,-0.297657 0.48912,-0.661459 z m -4.96036,-4.7625 c 0.003,-0.582083 0.0571,-0.789054 0.12041,-0.459936 0.0633,0.329119 0.0609,0.805369 -0.005,1.058334 -0.0662,0.252965 -0.11801,-0.01631 -0.11507,-0.598398 z" id="path167"/>
        </a>
      </g>
    </g>
  </g>
</svg>